<svg width="19" height="19" viewBox="0 0 19 19" fill="none" xmlns="http://www.w3.org/2000/svg">
<g clip-path="url(#clip0_1106_8827)">
<path d="M17.8125 16.625H4.35417C3.82926 16.625 3.32585 16.4165 2.95468 16.0453C2.58352 15.6742 2.375 15.1707 2.375 14.6458V1.1875C2.375 0.872555 2.24989 0.57051 2.02719 0.347811C1.80449 0.125111 1.50244 0 1.1875 0C0.872555 0 0.57051 0.125111 0.347811 0.347811C0.125111 0.57051 0 0.872555 0 1.1875L0 14.6458C0.0012573 15.8002 0.460402 16.907 1.27669 17.7233C2.09299 18.5396 3.19976 18.9987 4.35417 19H17.8125C18.1274 19 18.4295 18.8749 18.6522 18.6522C18.8749 18.4295 19 18.1274 19 17.8125C19 17.4976 18.8749 17.1955 18.6522 16.9728C18.4295 16.7501 18.1274 16.625 17.8125 16.625Z" fill="#394A31"/>
<path d="M17.8125 3.14771H15.3694C15.2129 3.14774 15.0599 3.19419 14.9297 3.28118C14.7995 3.36817 14.6981 3.4918 14.6382 3.63644C14.5783 3.78107 14.5626 3.94023 14.5931 4.09377C14.6237 4.24732 14.699 4.38836 14.8097 4.49908L15.39 5.07858L12.5503 7.91671C12.5135 7.95357 12.4699 7.98281 12.4218 8.00277C12.3737 8.02272 12.3221 8.033 12.2701 8.033C12.218 8.033 12.1664 8.02272 12.1184 8.00277C12.0703 7.98281 12.0266 7.95357 11.9898 7.91671L11.8552 7.78212C11.3275 7.27796 10.6257 6.99663 9.89585 6.99663C9.166 6.99663 8.46423 7.27796 7.93648 7.78212L4.69065 11.028C4.57724 11.1375 4.48677 11.2685 4.42453 11.4134C4.3623 11.5583 4.32954 11.7141 4.32817 11.8718C4.3268 12.0295 4.35685 12.1858 4.41655 12.3318C4.47626 12.4777 4.56444 12.6103 4.67593 12.7218C4.78743 12.8333 4.92002 12.9215 5.06596 12.9812C5.2119 13.0409 5.36827 13.0709 5.52594 13.0696C5.68362 13.0682 5.83944 13.0354 5.98432 12.9732C6.1292 12.911 6.26023 12.8205 6.36978 12.7071L9.61561 9.46125C9.65237 9.42438 9.69606 9.39514 9.74415 9.37518C9.79224 9.35523 9.84379 9.34496 9.89585 9.34496C9.94792 9.34496 9.99947 9.35523 10.0476 9.37518C10.0957 9.39514 10.1393 9.42438 10.1761 9.46125L10.3107 9.59583C10.8386 10.0996 11.5403 10.3807 12.2701 10.3807C12.9998 10.3807 13.7015 10.0996 14.2294 9.59583L17.0683 6.75771L17.6478 7.338C17.7585 7.44895 17.8996 7.52456 18.0533 7.55525C18.207 7.58594 18.3663 7.57033 18.5111 7.51039C18.6559 7.45045 18.7797 7.34889 18.8667 7.21856C18.9537 7.08823 19.0001 6.935 19 6.77829V4.3352C19 4.02026 18.8749 3.71822 18.6522 3.49552C18.4295 3.27282 18.1275 3.14771 17.8125 3.14771Z" fill="#394A31"/>
</g>
<defs>
<clipPath id="clip0_1106_8827">
<rect width="19" height="19" fill="white"/>
</clipPath>
</defs>
</svg>
