<svg width="25" height="24" viewBox="0 0 25 24" fill="none" xmlns="http://www.w3.org/2000/svg">
<g clip-path="url(#clip0_1106_8828)">
<path d="M15.625 7.50072C15.625 7.20405 15.7166 6.91404 15.8883 6.66737C16.06 6.4207 16.304 6.22844 16.5896 6.1149C16.8751 6.00137 17.1892 5.97167 17.4923 6.02955C17.7954 6.08742 18.0738 6.23029 18.2924 6.44006C18.5109 6.64984 18.6597 6.91712 18.72 7.20809C18.7803 7.49906 18.7493 7.80066 18.6311 8.07475C18.5128 8.34884 18.3125 8.58311 18.0556 8.74793C17.7986 8.91275 17.4965 9.00072 17.1875 9.00072C16.7731 9.00072 16.3757 8.84269 16.0826 8.56138C15.7896 8.28008 15.625 7.89855 15.625 7.50072ZM14.0625 12.0007C14.3715 12.0007 14.6736 11.9128 14.9306 11.7479C15.1875 11.5831 15.3878 11.3488 15.5061 11.0747C15.6243 10.8007 15.6553 10.4991 15.595 10.2081C15.5347 9.91712 15.3859 9.64984 15.1674 9.44006C14.9488 9.23028 14.6704 9.08742 14.3673 9.02955C14.0642 8.97167 13.7501 9.00137 13.4646 9.1149C13.179 9.22844 12.935 9.4207 12.7633 9.66737C12.5916 9.91404 12.5 10.2041 12.5 10.5007C12.5 10.8985 12.6646 11.2801 12.9576 11.5614C13.2507 11.8427 13.6481 12.0007 14.0625 12.0007ZM10.9375 15.0007C11.2465 15.0007 11.5486 14.9128 11.8056 14.7479C12.0625 14.5831 12.2628 14.3488 12.3811 14.0747C12.4993 13.8007 12.5303 13.4991 12.47 13.2081C12.4097 12.9171 12.2609 12.6498 12.0424 12.4401C11.8238 12.2303 11.5454 12.0874 11.2423 12.0295C10.9392 11.9717 10.6251 12.0014 10.3396 12.1149C10.054 12.2284 9.81002 12.4207 9.63833 12.6674C9.46664 12.914 9.375 13.2041 9.375 13.5007C9.375 13.8985 9.53962 14.2801 9.83265 14.5614C10.1257 14.8427 10.5231 15.0007 10.9375 15.0007ZM24.8344 3.55372L24.7563 3.76272C23.0333 8.35172 21.3875 12.6877 17.5948 16.4537C17.313 19.0329 16.0963 21.4351 14.1573 23.2407C13.6259 23.7263 12.9211 23.9982 12.1875 24.0007C11.4416 24.0007 10.7262 23.7163 10.1988 23.2099C9.67132 22.7036 9.375 22.0168 9.375 21.3007V19.6697C8.76315 19.4542 8.19628 19.1355 7.70104 18.7287L5.79271 20.5617C5.49959 20.8431 5.10203 21.0012 4.6875 21.0012C4.27297 21.0012 3.87541 20.8431 3.58229 20.5617C3.28917 20.2803 3.1245 19.8987 3.1245 19.5007C3.1245 19.1028 3.28917 18.7211 3.58229 18.4397L5.49271 16.6057C4.8544 15.8585 4.44186 14.9574 4.3 14.0007H2.8125C2.06658 14.0007 1.35121 13.7163 0.823762 13.2099C0.296316 12.7036 0 12.0168 0 11.3007C0.00287828 10.5968 0.28612 9.9206 0.791667 9.41072C1.8763 8.34688 3.16941 7.4995 4.59656 6.91735C6.0237 6.33521 7.5567 6.02981 9.10729 6.01872C12.7281 3.12572 16.801 1.71872 21.0865 0.234724L21.3031 0.159724C21.7964 -0.0109217 22.3301 -0.0432653 22.8419 0.066473C23.3536 0.176211 23.8222 0.423499 24.193 0.779439C24.5638 1.13538 24.8214 1.58527 24.9357 2.07654C25.05 2.5678 25.0163 3.08016 24.8385 3.55372H24.8344ZM21.6333 3.23272C17.0958 4.80572 13.1615 6.24072 9.79167 9.47272C9.07442 10.2501 8.40621 11.0678 7.79063 11.9217C7.46271 12.3693 7.31014 12.9138 7.35989 13.4589C7.40964 14.004 7.6585 14.5147 8.0625 14.9007L9.54583 16.3207C9.94814 16.7073 10.4797 16.9452 11.0468 16.9924C11.6139 17.0396 12.1802 16.8931 12.6458 16.5787C13.5342 15.9912 14.3666 15.3292 15.1333 14.6007C18.5 11.3657 20 7.58872 21.6333 3.23272Z" fill="#394A31"/>
</g>
<defs>
<clipPath id="clip0_1106_8828">
<rect width="25" height="24" fill="white"/>
</clipPath>
</defs>
</svg>
