<svg width="24" height="24" viewBox="0 0 24 24" fill="none" xmlns="http://www.w3.org/2000/svg">
<g clip-path="url(#clip0_1106_6336)">
<path d="M22.9998 16.0005C22.7346 16.0005 22.4803 16.1058 22.2927 16.2934C22.1052 16.4809 21.9998 16.7353 21.9998 17.0005V19.0005C21.9998 19.7961 21.6838 20.5592 21.1212 21.1218C20.5586 21.6844 19.7955 22.0005 18.9998 22.0005H16.9999C16.7346 22.0005 16.4803 22.1058 16.2927 22.2934C16.1052 22.4809 15.9999 22.7353 15.9999 23.0005C15.9999 23.2657 16.1052 23.52 16.2927 23.7076C16.4803 23.8951 16.7346 24.0005 16.9999 24.0005H18.9998C20.3254 23.9989 21.5963 23.4716 22.5336 22.5343C23.471 21.5969 23.9983 20.3261 23.9998 19.0005V17.0005C23.9998 16.7353 23.8945 16.4809 23.7069 16.2934C23.5194 16.1058 23.2651 16.0005 22.9998 16.0005Z" fill="white"/>
<path d="M1 8C1.26522 8 1.51957 7.89464 1.70711 7.70711C1.89464 7.51957 2 7.26522 2 7V5C2 4.20435 2.31607 3.44129 2.87868 2.87868C3.44129 2.31607 4.20435 2 5 2H7C7.26522 2 7.51957 1.89464 7.70711 1.70711C7.89464 1.51957 8 1.26522 8 1C8 0.734784 7.89464 0.48043 7.70711 0.292893C7.51957 0.105357 7.26522 0 7 0L5 0C3.67441 0.00158786 2.40356 0.528882 1.46622 1.46622C0.528882 2.40356 0.00158786 3.67441 0 5L0 7C0 7.26522 0.105357 7.51957 0.292893 7.70711C0.48043 7.89464 0.734784 8 1 8Z" fill="white"/>
<path d="M6.99999 22.0005H4.99999C4.20434 22.0005 3.44128 21.6844 2.87867 21.1218C2.31606 20.5592 1.99999 19.7961 1.99999 19.0005V17.0005C1.99999 16.7353 1.89464 16.4809 1.7071 16.2934C1.51956 16.1058 1.26521 16.0005 0.999992 16.0005C0.734776 16.0005 0.480422 16.1058 0.292886 16.2934C0.105349 16.4809 -7.62939e-06 16.7353 -7.62939e-06 17.0005L-7.62939e-06 19.0005C0.00158023 20.3261 0.528874 21.5969 1.46621 22.5343C2.40355 23.4716 3.6744 23.9989 4.99999 24.0005H6.99999C7.26521 24.0005 7.51956 23.8951 7.7071 23.7076C7.89464 23.52 7.99999 23.2657 7.99999 23.0005C7.99999 22.7353 7.89464 22.4809 7.7071 22.2934C7.51956 22.1058 7.26521 22.0005 6.99999 22.0005Z" fill="white"/>
<path d="M18.9998 0H16.9999C16.7346 0 16.4803 0.105357 16.2927 0.292893C16.1052 0.48043 15.9999 0.734784 15.9999 1C15.9999 1.26522 16.1052 1.51957 16.2927 1.70711C16.4803 1.89464 16.7346 2 16.9999 2H18.9998C19.7955 2 20.5586 2.31607 21.1212 2.87868C21.6838 3.44129 21.9998 4.20435 21.9998 5V7C21.9998 7.26522 22.1052 7.51957 22.2927 7.70711C22.4803 7.89464 22.7346 8 22.9998 8C23.2651 8 23.5194 7.89464 23.7069 7.70711C23.8945 7.51957 23.9998 7.26522 23.9998 7V5C23.9983 3.67441 23.471 2.40356 22.5336 1.46622C21.5963 0.528882 20.3254 0.00158786 18.9998 0V0Z" fill="white"/>
<path d="M12.0001 11C14.2093 11 16.0001 9.20914 16.0001 7C16.0001 4.79086 14.2093 3 12.0001 3C9.791 3 8.00014 4.79086 8.00014 7C8.00014 9.20914 9.791 11 12.0001 11Z" fill="white"/>
<path d="M11.0002 13.0005C9.40934 13.0021 7.88414 13.6347 6.75927 14.7596C5.63439 15.8845 5.00174 17.4097 5.00015 19.0005C5.00015 19.2657 5.10551 19.5201 5.29305 19.7076C5.48058 19.8951 5.73494 20.0005 6.00015 20.0005H18.0002C18.2654 20.0005 18.5197 19.8951 18.7073 19.7076C18.8948 19.5201 19.0002 19.2657 19.0002 19.0005C18.9986 17.4097 18.3659 15.8845 17.241 14.7596C16.1162 13.6347 14.591 13.0021 13.0002 13.0005H11.0002Z" fill="white"/>
</g>
<defs>
<clipPath id="clip0_1106_6336">
<rect width="24" height="24" fill="white"/>
</clipPath>
</defs>
</svg>
