<svg width="24" height="24" viewBox="0 0 24 24" fill="none" xmlns="http://www.w3.org/2000/svg">
<g clip-path="url(#clip0_1106_6366)">
<path d="M22.7072 22.7078C22.3172 23.0978 21.6832 23.0978 21.2932 22.7078L19.8792 21.2938L18.4642 22.7078C18.0802 23.1048 17.4472 23.1158 17.0502 22.7328C16.6532 22.3488 16.6422 21.7158 17.0252 21.3188C17.0332 21.3108 17.0412 21.3018 17.0502 21.2938L18.4642 19.8798L17.0502 18.4648C16.6532 18.0808 16.6422 17.4478 17.0252 17.0508C17.4092 16.6538 18.0422 16.6428 18.4392 17.0258C18.4472 17.0338 18.4562 17.0418 18.4642 17.0508L19.8792 18.4648L21.2932 17.0508C21.6772 16.6538 22.3102 16.6428 22.7072 17.0258C23.1042 17.4098 23.1152 18.0428 22.7322 18.4398C22.7242 18.4478 22.7162 18.4568 22.7072 18.4648L21.2932 19.8798L22.7072 21.2938C23.0992 21.6828 23.1042 22.3128 22.7152 22.7048C22.7132 22.7068 22.7122 22.7088 22.7072 22.7078Z" fill="white"/>
<path d="M14.0351 20.015C14.0311 16.718 16.7001 14.042 19.9961 14.037C21.2791 14.035 22.5291 14.447 23.5591 15.212C25.3321 8.82703 21.5931 2.21403 15.2091 0.441034C8.82512 -1.33197 2.21312 2.40603 0.440116 8.79103C-1.33288 15.176 2.40612 21.79 8.79012 23.563C10.8901 24.146 13.1091 24.146 15.2091 23.563C14.4471 22.537 14.0351 21.293 14.0351 20.015ZM13.0001 12.022C13.0001 12.288 12.8941 12.542 12.7061 12.73L9.70112 15.736C9.30312 16.12 8.66912 16.109 8.28512 15.711C7.91012 15.323 7.91012 14.707 8.28512 14.319L10.9971 11.607V7.01303C10.9971 6.46003 11.4451 6.01103 11.9991 6.01103C12.5521 6.01103 13.0001 6.46003 13.0001 7.01303V12.022Z" fill="white"/>
</g>
<defs>
<clipPath id="clip0_1106_6366">
<rect width="24" height="24" fill="white"/>
</clipPath>
</defs>
</svg>
