<svg width="24" height="23" viewBox="0 0 24 23" fill="none" xmlns="http://www.w3.org/2000/svg">
<g clip-path="url(#clip0_1106_8852)">
<path d="M24 21.0829C24 21.3371 23.8946 21.5808 23.7071 21.7605C23.5196 21.9403 23.2652 22.0412 23 22.0412H1C0.734784 22.0412 0.48043 21.9403 0.292893 21.7605C0.105357 21.5808 0 21.3371 0 21.0829C0 20.8287 0.105357 20.585 0.292893 20.4052C0.48043 20.2255 0.734784 20.1246 1 20.1246H23C23.2652 20.1246 23.5196 20.2255 23.7071 20.4052C23.8946 20.585 24 20.8287 24 21.0829ZM2 18.2079H22C22.2652 18.2079 22.5196 18.1069 22.7071 17.9272C22.8946 17.7475 23 17.5037 23 17.2496V16.2912C22.9964 13.6628 21.9692 11.1304 20.1196 9.18961C18.27 7.24885 15.7311 6.03955 13 5.79843V4.52577C13.3813 4.31481 13.6793 3.98917 13.8478 3.59936C14.0162 3.20956 14.0458 2.77736 13.9319 2.36982C13.8179 1.96227 13.5668 1.60214 13.2175 1.34529C12.8682 1.08844 12.4403 0.949219 12 0.949219C11.5597 0.949219 11.1318 1.08844 10.7825 1.34529C10.4332 1.60214 10.1821 1.96227 10.0681 2.36982C9.9542 2.77736 9.98376 3.20956 10.1522 3.59936C10.3207 3.98917 10.6187 4.31481 11 4.52577V5.79843C8.26889 6.03955 5.73002 7.24885 3.88041 9.18961C2.0308 11.1304 1.00363 13.6628 1 16.2912V17.2496C1 17.5037 1.10536 17.7475 1.29289 17.9272C1.48043 18.1069 1.73478 18.2079 2 18.2079Z" fill="#394A31"/>
</g>
<defs>
<clipPath id="clip0_1106_8852">
<rect width="24" height="23" fill="white"/>
</clipPath>
</defs>
</svg>
