<svg width="25" height="24" viewBox="0 0 25 24" fill="none" xmlns="http://www.w3.org/2000/svg">
<path d="M18.7498 0H8.33317C7.32091 0.00127838 6.33098 0.285705 5.48443 0.818499C4.63788 1.35129 3.97141 2.10936 3.5665 3H2.08317C1.8069 3 1.54195 3.10536 1.3466 3.29289C1.15125 3.48043 1.0415 3.73478 1.0415 4C1.0415 4.26522 1.15125 4.51957 1.3466 4.70711C1.54195 4.89464 1.8069 5 2.08317 5H3.12484V7H2.08317C1.8069 7 1.54195 7.10536 1.3466 7.29289C1.15125 7.48043 1.0415 7.73478 1.0415 8C1.0415 8.26522 1.15125 8.51957 1.3466 8.70711C1.54195 8.89464 1.8069 9 2.08317 9H3.12484V11H2.08317C1.8069 11 1.54195 11.1054 1.3466 11.2929C1.15125 11.4804 1.0415 11.7348 1.0415 12C1.0415 12.2652 1.15125 12.5196 1.3466 12.7071C1.54195 12.8946 1.8069 13 2.08317 13H3.12484V15H2.08317C1.8069 15 1.54195 15.1054 1.3466 15.2929C1.15125 15.4804 1.0415 15.7348 1.0415 16C1.0415 16.2652 1.15125 16.5196 1.3466 16.7071C1.54195 16.8946 1.8069 17 2.08317 17H3.12484V19H2.08317C1.8069 19 1.54195 19.1054 1.3466 19.2929C1.15125 19.4804 1.0415 19.7348 1.0415 20C1.0415 20.2652 1.15125 20.5196 1.3466 20.7071C1.54195 20.8946 1.8069 21 2.08317 21H3.5665C3.97141 21.8906 4.63788 22.6487 5.48443 23.1815C6.33098 23.7143 7.32091 23.9987 8.33317 24H18.7498C20.1307 23.9984 21.4545 23.4711 22.4309 22.5338C23.4073 21.5964 23.9565 20.3256 23.9582 19V5C23.9565 3.67441 23.4073 2.40356 22.4309 1.46622C21.4545 0.528882 20.1307 0.00158786 18.7498 0V0ZM21.8748 19C21.8748 19.7956 21.5456 20.5587 20.9595 21.1213C20.3735 21.6839 19.5786 22 18.7498 22H8.33317C7.50437 22 6.70951 21.6839 6.12346 21.1213C5.53741 20.5587 5.20817 19.7956 5.20817 19V5C5.20817 4.20435 5.53741 3.44129 6.12346 2.87868C6.70951 2.31607 7.50437 2 8.33317 2H18.7498C19.5786 2 20.3735 2.31607 20.9595 2.87868C21.5456 3.44129 21.8748 4.20435 21.8748 5V19ZM13.5415 12C14.3703 12 15.1652 11.6839 15.7512 11.1213C16.3373 10.5587 16.6665 9.79565 16.6665 9C16.6665 8.20435 16.3373 7.44129 15.7512 6.87868C15.1652 6.31607 14.3703 6 13.5415 6C12.7127 6 11.9178 6.31607 11.3318 6.87868C10.7457 7.44129 10.4165 8.20435 10.4165 9C10.4165 9.79565 10.7457 10.5587 11.3318 11.1213C11.9178 11.6839 12.7127 12 13.5415 12ZM18.7498 18C18.7498 18.2652 18.6401 18.5196 18.4447 18.7071C18.2494 18.8946 17.9844 19 17.7082 19C17.4319 19 17.167 18.8946 16.9716 18.7071C16.7762 18.5196 16.6665 18.2652 16.6665 18C16.6665 17.2044 16.3373 16.4413 15.7512 15.8787C15.1652 15.3161 14.3703 15 13.5415 15C12.7127 15 11.9178 15.3161 11.3318 15.8787C10.7457 16.4413 10.4165 17.2044 10.4165 18C10.4165 18.2652 10.3068 18.5196 10.1114 18.7071C9.91606 18.8946 9.6511 19 9.37484 19C9.09857 19 8.83362 18.8946 8.63827 18.7071C8.44292 18.5196 8.33317 18.2652 8.33317 18C8.55296 11.392 18.5321 11.394 18.7498 18Z" fill="#394A31"/>
</svg>
