<svg width="25" height="25" viewBox="0 0 25 25" fill="none" xmlns="http://www.w3.org/2000/svg">
<g clip-path="url(#clip0_1106_6351)">
<path d="M12.5 2.34375C10.0152 2.34891 7.63361 3.33829 5.87657 5.09532C4.11954 6.85236 3.13016 9.23393 3.125 11.7188V21.0938C3.12811 21.2407 3.17208 21.3838 3.252 21.5072C3.33192 21.6305 3.44461 21.7291 3.57745 21.792C3.71029 21.8549 3.85801 21.8795 4.00406 21.8631C4.15011 21.8467 4.2887 21.79 4.4043 21.6992L6.76758 19.7559L9.14062 21.6992C9.27996 21.8126 9.45413 21.8745 9.63379 21.8745C9.81345 21.8745 9.98761 21.8126 10.127 21.6992L12.5 19.7559L14.873 21.6992C15.0124 21.8126 15.1866 21.8745 15.3662 21.8745C15.5459 21.8745 15.72 21.8126 15.8594 21.6992L18.2324 19.7559L20.5957 21.6992C20.7101 21.7935 20.8492 21.8529 20.9964 21.8702C21.1436 21.8875 21.2927 21.8621 21.4258 21.7969C21.5602 21.7351 21.674 21.6359 21.7536 21.5113C21.8333 21.3866 21.8754 21.2417 21.875 21.0938V11.7188C21.8698 9.23393 20.8805 6.85236 19.1234 5.09532C17.3664 3.33829 14.9848 2.34891 12.5 2.34375ZM9.76562 12.5C9.53385 12.5 9.30728 12.4313 9.11457 12.3025C8.92185 12.1737 8.77165 11.9907 8.68295 11.7766C8.59426 11.5625 8.57105 11.3268 8.61627 11.0995C8.66148 10.8722 8.77309 10.6634 8.93698 10.4995C9.10087 10.3356 9.30968 10.224 9.537 10.1788C9.76432 10.1336 9.99995 10.1568 10.2141 10.2455C10.4282 10.3341 10.6112 10.4844 10.74 10.6771C10.8688 10.8698 10.9375 11.0963 10.9375 11.3281C10.9375 11.6389 10.814 11.937 10.5943 12.1568C10.3745 12.3765 10.0764 12.5 9.76562 12.5ZM15.2344 12.5C15.0026 12.5 14.776 12.4313 14.5833 12.3025C14.3906 12.1737 14.2404 11.9907 14.1517 11.7766C14.063 11.5625 14.0398 11.3268 14.085 11.0995C14.1302 10.8722 14.2418 10.6634 14.4057 10.4995C14.5696 10.3356 14.7784 10.224 15.0058 10.1788C15.2331 10.1336 15.4687 10.1568 15.6828 10.2455C15.897 10.3341 16.08 10.4844 16.2088 10.6771C16.3375 10.8698 16.4062 11.0963 16.4062 11.3281C16.4062 11.6389 16.2828 11.937 16.063 12.1568C15.8432 12.3765 15.5452 12.5 15.2344 12.5Z" fill="white"/>
</g>
<defs>
<clipPath id="clip0_1106_6351">
<rect width="25" height="25" fill="white"/>
</clipPath>
</defs>
</svg>
