<svg width="20" height="20" viewBox="0 0 20 20" fill="none" xmlns="http://www.w3.org/2000/svg">
<g clip-path="url(#clip0_1106_8853)">
<path d="M16.7032 0.85C20.1666 0.634167 21.4249 7.57583 17.9165 10.7767C17.4089 11.3071 16.8017 11.7322 16.1296 12.0279C15.4576 12.3236 14.7339 12.484 13.9999 12.5C12.9161 12.5173 11.8397 12.319 10.8332 11.9167V4.48333C12.5149 2.61167 14.5932 0.85 16.7032 0.85ZM9.99988 3.33333C10.4419 3.33333 10.8658 3.15774 11.1784 2.84518C11.491 2.53262 11.6666 2.10869 11.6666 1.66667C11.6666 1.22464 11.491 0.800716 11.1784 0.488155C10.8658 0.175595 10.4419 0 9.99988 0C9.55786 0 9.13393 0.175595 8.82137 0.488155C8.50881 0.800716 8.33322 1.22464 8.33322 1.66667C8.33322 2.10869 8.50881 2.53262 8.82137 2.84518C9.13393 3.15774 9.55786 3.33333 9.99988 3.33333ZM13.9924 14.1667C12.6176 14.1738 11.257 13.8898 9.99988 13.3333C8.24988 14.2583 3.99988 14.8192 1.48905 12.4792C1.14227 13.1308 0.930068 13.8455 0.865073 14.5807C0.800079 15.316 0.883616 16.0568 1.11072 16.7592C1.251 17.2364 1.49579 17.6765 1.82732 18.0473C2.15884 18.4182 2.56878 18.7106 3.02738 18.9033C3.47233 19.0937 3.9541 19.1827 4.4377 19.1636C4.92131 19.1446 5.3946 19.0181 5.82322 18.7933C7.05542 18.1543 8.18285 17.3309 9.16655 16.3517V18.3333C9.16655 18.5543 9.25435 18.7663 9.41063 18.9226C9.56691 19.0789 9.77887 19.1667 9.99988 19.1667C10.2209 19.1667 10.4329 19.0789 10.5891 18.9226C10.7454 18.7663 10.8332 18.5543 10.8332 18.3333V16.3517C11.8184 17.3314 12.9476 18.1548 14.1815 18.7933C14.6102 19.0181 15.0835 19.1446 15.5671 19.1636C16.0507 19.1827 16.5324 19.0937 16.9774 18.9033C17.436 18.7106 17.8459 18.4182 18.1774 18.0473C18.509 17.6765 18.7538 17.2364 18.8941 16.7592C19.1212 16.0568 19.2047 15.316 19.1397 14.5807C19.0747 13.8455 18.8625 13.1308 18.5157 12.4792C17.2495 13.5496 15.6503 14.1462 13.9924 14.1667ZM6.00488 12.5C7.08694 12.516 8.16147 12.3178 9.16655 11.9167V4.4775C6.26655 0.93 0.199049 -2.13917 0.00488281 6.07C0.057613 7.85109 0.805401 9.54079 2.08822 10.7775C3.11949 11.84 4.52477 12.4581 6.00488 12.5Z" fill="#394A31"/>
</g>
<defs>
<clipPath id="clip0_1106_8853">
<rect width="20" height="20" fill="white"/>
</clipPath>
</defs>
</svg>
