<svg width="23" height="23" viewBox="0 0 23 23" fill="none" xmlns="http://www.w3.org/2000/svg">
<path d="M13.417 6.70833V0.440833C14.3035 0.775613 15.1087 1.29501 15.7793 1.96458L19.1181 5.30533C19.7885 5.97509 20.3082 6.78011 20.6428 7.66667H14.3753C14.1212 7.66667 13.8774 7.5657 13.6977 7.38598C13.518 7.20625 13.417 6.9625 13.417 6.70833ZM21.0837 10.0481V18.2083C21.0821 19.4787 20.5768 20.6966 19.6785 21.5949C18.7803 22.4932 17.5624 22.9985 16.292 23H6.70866C5.4383 22.9985 4.2204 22.4932 3.32212 21.5949C2.42384 20.6966 1.91851 19.4787 1.91699 18.2083V4.79167C1.91851 3.5213 2.42384 2.30341 3.32212 1.40513C4.2204 0.506845 5.4383 0.0015217 6.70866 0L11.0355 0C11.1917 0 11.346 0.0124583 11.5003 0.023V6.70833C11.5003 7.47083 11.8032 8.2021 12.3424 8.74127C12.8816 9.28043 13.6128 9.58333 14.3753 9.58333H21.0607C21.0712 9.73763 21.0837 9.89192 21.0837 10.0481ZM13.417 18.2083C13.417 17.9542 13.316 17.7104 13.1363 17.5307C12.9566 17.351 12.7128 17.25 12.4587 17.25H7.66699C7.41283 17.25 7.16907 17.351 6.98935 17.5307C6.80963 17.7104 6.70866 17.9542 6.70866 18.2083C6.70866 18.4625 6.80963 18.7063 6.98935 18.886C7.16907 19.0657 7.41283 19.1667 7.66699 19.1667H12.4587C12.7128 19.1667 12.9566 19.0657 13.1363 18.886C13.316 18.7063 13.417 18.4625 13.417 18.2083ZM16.292 14.375C16.292 14.1208 16.191 13.8771 16.0113 13.6974C15.8316 13.5176 15.5878 13.4167 15.3337 13.4167H7.66699C7.41283 13.4167 7.16907 13.5176 6.98935 13.6974C6.80963 13.8771 6.70866 14.1208 6.70866 14.375C6.70866 14.6292 6.80963 14.8729 6.98935 15.0526C7.16907 15.2324 7.41283 15.3333 7.66699 15.3333H15.3337C15.5878 15.3333 15.8316 15.2324 16.0113 15.0526C16.191 14.8729 16.292 14.6292 16.292 14.375Z" fill="#394A31"/>
</svg>
