<svg width="22" height="20" viewBox="0 0 22 20" fill="none" xmlns="http://www.w3.org/2000/svg">
<path d="M6.24206 18.3333H4.49278C3.04364 18.3333 1.86887 17.214 1.86887 15.8333V4.16668C1.86887 2.78598 3.04364 1.66668 4.49278 1.66668H6.24206C6.72511 1.66668 7.11669 1.29359 7.11669 0.833359C7.11669 0.373125 6.72511 0 6.24206 0H4.49278C2.07879 0.00277344 0.12254 1.86664 0.119629 4.16668V15.8334C0.12254 18.1334 2.07879 19.9973 4.49282 20H6.24211C6.72515 20 7.11673 19.6269 7.11673 19.1667C7.11673 18.7064 6.72511 18.3333 6.24206 18.3333Z" fill="#A6BFA1"/>
<path d="M20.2364 9.16698L6.43727 9.19366C6.51398 9.05792 6.60992 8.93284 6.72242 8.82198L10.1151 5.58948C10.4626 5.26976 10.4722 4.74218 10.1367 4.41116C9.80108 4.08011 9.24735 4.07093 8.89993 4.39065C8.89263 4.39737 8.88546 4.40421 8.87841 4.41116L5.48393 7.64366C4.11815 8.94534 4.11815 11.0553 5.48393 12.357L8.87664 15.5895C9.21222 15.9205 9.76594 15.9297 10.1134 15.61C10.4608 15.2902 10.4704 14.7626 10.1348 14.4316C10.1278 14.4247 10.1207 14.4178 10.1134 14.4112L6.72065 11.1787C6.62275 11.0826 6.53731 10.9757 6.46614 10.8603L20.2364 10.8337C20.7194 10.8337 21.111 10.4606 21.111 10.0003C21.111 9.54007 20.7194 9.16698 20.2364 9.16698Z" fill="#A6BFA1"/>
</svg>
