<svg width="24" height="23" viewBox="0 0 24 23" fill="none" xmlns="http://www.w3.org/2000/svg">
<g clip-path="url(#clip0_1106_8848)">
<path d="M22.9421 6.55199L20.7601 4.45995L21.7071 3.55241C21.8026 3.464 21.8788 3.35826 21.9312 3.24134C21.9836 3.12442 22.0112 2.99866 22.0124 2.87142C22.0135 2.74417 21.9882 2.61798 21.9379 2.5002C21.8876 2.38242 21.8134 2.27543 21.7195 2.18544C21.6256 2.09546 21.514 2.0243 21.3911 1.97612C21.2682 1.92793 21.1365 1.90369 21.0037 1.90479C20.8709 1.9059 20.7397 1.93233 20.6177 1.98256C20.4957 2.03278 20.3853 2.10579 20.2931 2.19732L19.3461 3.10486L17.1631 1.01378C16.475 0.385424 15.561 0.0349121 14.6106 0.0349121C13.6602 0.0349121 12.7462 0.385424 12.0581 1.01378C11.7227 1.33498 11.4566 1.71638 11.275 2.13619C11.0934 2.55599 11 3.00597 11 3.46041C11 3.91484 11.0934 4.36482 11.275 4.78462C11.4566 5.20443 11.7227 5.58583 12.0581 5.90703L14.2401 7.99811L8.3461 13.6465L6.1631 11.5554C5.47504 10.9271 4.56105 10.5766 3.6106 10.5766C2.66016 10.5766 1.74617 10.9271 1.0581 11.5554C0.722662 11.8766 0.456559 12.258 0.275003 12.6779C0.0934482 13.0977 0 13.5476 0 14.0021C0 14.4565 0.0934482 14.9065 0.275003 15.3263C0.456559 15.7461 0.722662 16.1275 1.0581 16.4487L3.2401 18.5398L2.2931 19.4473C2.19759 19.5357 2.12141 19.6415 2.069 19.7584C2.01659 19.8753 1.98901 20.0011 1.98785 20.1283C1.9867 20.2556 2.012 20.3818 2.06228 20.4995C2.11256 20.6173 2.18682 20.7243 2.28071 20.8143C2.3746 20.9043 2.48625 20.9754 2.60915 21.0236C2.73205 21.0718 2.86373 21.096 2.99651 21.0949C3.12928 21.0938 3.2605 21.0674 3.38251 21.0172C3.50451 20.9669 3.61486 20.8939 3.7071 20.8024L4.6541 19.8949L6.8371 21.9859C7.17225 22.3073 7.57017 22.5622 8.00814 22.7361C8.4461 22.91 8.91553 22.9995 9.3896 22.9995C9.86368 22.9995 10.3331 22.91 10.7711 22.7361C11.209 22.5622 11.607 22.3073 11.9421 21.9859C12.2775 21.6648 12.5436 21.2835 12.7251 20.8638C12.9067 20.4441 13.0001 19.9942 13.0001 19.5398C13.0001 19.0854 12.9067 18.6355 12.7251 18.2158C12.5436 17.7961 12.2775 17.4148 11.9421 17.0937L9.7601 15.0026L15.6601 9.3532L17.8421 11.4443C18.1772 11.7656 18.5752 12.0205 19.0131 12.1944C19.4511 12.3683 19.9205 12.4578 20.3946 12.4578C20.8687 12.4578 21.3381 12.3683 21.7761 12.1944C22.214 12.0205 22.612 11.7656 22.9471 11.4443C23.2825 11.1232 23.5486 10.7418 23.7301 10.3221C23.9117 9.90239 24.0051 9.45249 24.0051 8.99814C24.0051 8.54378 23.9117 8.09388 23.7301 7.67416C23.5486 7.25443 23.2825 6.87311 22.9471 6.55199H22.9421Z" fill="#394A31"/>
</g>
<defs>
<clipPath id="clip0_1106_8848">
<rect width="24" height="23" fill="white"/>
</clipPath>
</defs>
</svg>
