<svg width="22" height="22" viewBox="0 0 22 22" fill="none" xmlns="http://www.w3.org/2000/svg">
<g clip-path="url(#clip0_1106_8830)">
<path d="M1.21635 11.3668L4.47968 13.7502L3.24035 17.5882C3.04007 18.1835 3.03753 18.8276 3.23312 19.4244C3.4287 20.0212 3.81193 20.5389 4.32568 20.9002C4.83063 21.273 5.44254 21.4728 6.07024 21.4697C6.69794 21.4665 7.30782 21.2607 7.80902 20.8827L10.9999 18.5342L14.1918 20.88C14.6958 21.2507 15.3044 21.4521 15.9301 21.4552C16.5558 21.4582 17.1663 21.2628 17.674 20.897C18.1816 20.5311 18.5601 20.0138 18.7552 19.4193C18.9502 18.8247 18.9518 18.1837 18.7595 17.5882L17.5202 13.7502L20.7835 11.3668C21.2869 10.9988 21.6611 10.4811 21.8527 9.88769C22.0442 9.29427 22.0434 8.6555 21.8502 8.0626C21.6571 7.4697 21.2815 6.95301 20.7771 6.58632C20.2728 6.21964 19.6654 6.02172 19.0419 6.02083H15.0333L13.8168 2.22949C13.6256 1.63271 13.2497 1.11209 12.7434 0.742721C12.2371 0.373352 11.6266 0.174316 10.9999 0.174316C10.3732 0.174316 9.76274 0.373352 9.25646 0.742721C8.75019 1.11209 8.3743 1.63271 8.18302 2.22949L6.9666 6.02083H2.96168C2.33811 6.02172 1.73077 6.21964 1.22641 6.58632C0.722053 6.95301 0.34647 7.4697 0.153311 8.0626C-0.0398488 8.6555 -0.0407037 9.29427 0.150868 9.88769C0.34244 10.4811 0.716638 10.9988 1.22002 11.3668H1.21635Z" fill="#394A31"/>
</g>
<defs>
<clipPath id="clip0_1106_8830">
<rect width="22" height="22" fill="white"/>
</clipPath>
</defs>
</svg>
