<svg width="22" height="22" viewBox="0 0 22 22" fill="none" xmlns="http://www.w3.org/2000/svg">
<path d="M11 13.7424C9.48123 13.7424 8.25 14.9737 8.25 16.4924V21.9924H13.75V16.4924C13.75 14.9737 12.5188 13.7424 11 13.7424Z" fill="#394A31"/>
<path d="M15.5833 16.4929V21.9929H19.25C20.7688 21.9929 22 20.7617 22 19.2429V10.882C22.0002 10.4058 21.8151 9.94815 21.4839 9.60599L13.6941 1.18455C12.3196 -0.302603 9.99982 -0.393911 8.51267 0.980573C8.44203 1.04589 8.37396 1.11391 8.30869 1.18455L0.532598 9.60324C0.19134 9.94682 -0.000128841 10.4115 6.50474e-08 10.8957V19.2429C6.50474e-08 20.7617 1.23123 21.9929 2.75 21.9929H6.41665V16.4929C6.4338 13.9933 8.45191 11.9521 10.8885 11.8933C13.4067 11.8326 15.5641 13.9085 15.5833 16.4929Z" fill="#394A31"/>
<path d="M11 13.7424C9.48123 13.7424 8.25 14.9737 8.25 16.4924V21.9924H13.75V16.4924C13.75 14.9737 12.5188 13.7424 11 13.7424Z" fill="#394A31"/>
</svg>
