<svg width="21" height="21" viewBox="0 0 21 21" fill="none" xmlns="http://www.w3.org/2000/svg">
<g clip-path="url(#clip0_1106_8723)">
<path d="M21 7.875C20.8867 8.51034 20.6342 9.11273 20.2606 9.639L12.5755 19.9815C12.3319 20.2963 12.0198 20.5515 11.663 20.7279C11.3061 20.9043 10.9139 20.9973 10.5158 20.9997C10.1177 21.0022 9.72436 20.914 9.36538 20.742C9.0064 20.57 8.69125 20.3186 8.44375 20.0069L0.721 9.45C0.392945 8.97465 0.161361 8.43954 0.039375 7.875H5.52388L9.68275 18.6891C9.74604 18.8546 9.85805 18.9969 10.004 19.0973C10.1499 19.1977 10.3229 19.2515 10.5 19.2515C10.6771 19.2515 10.8501 19.1977 10.996 19.0973C11.142 18.9969 11.254 18.8546 11.3173 18.6891L15.4761 7.875H21ZM15.4875 6.125H20.9624C20.8293 5.53299 20.5739 4.97534 20.2125 4.48788L17.9743 1.46563C17.6501 1.0126 17.2227 0.643345 16.7274 0.388464C16.2321 0.133583 15.6832 0.000417057 15.1261 1.69188e-06H13.2011L15.4875 6.125ZM9.7195 1.69188e-06L7.39288 6.125H13.6159L11.3356 1.69188e-06H9.7195ZM5.52125 6.125L7.847 1.69188e-06H5.81525C5.26293 -0.000542003 4.71837 0.129961 4.2263 0.38079C3.73422 0.631619 3.30868 0.995616 2.98463 1.44288L0.82075 4.27963C0.406704 4.82215 0.125602 5.45419 0 6.125H5.52125ZM13.601 7.875H7.399L10.5 15.9373L13.601 7.875Z" fill="#394A31"/>
</g>
<defs>
<clipPath id="clip0_1106_8723">
<rect width="21" height="21" fill="white"/>
</clipPath>
</defs>
</svg>
