<svg width="625" height="627" viewBox="0 0 625 627" fill="none" xmlns="http://www.w3.org/2000/svg">
<g clip-path="url(#clip0_766_271)">
<mask id="mask0_766_271" style="mask-type:luminance" maskUnits="userSpaceOnUse" x="0" y="0" width="629" height="629">
<path d="M628.798 0H0V628.798H628.798V0Z" fill="white"/>
</mask>
<g mask="url(#mask0_766_271)">
<path d="M381.932 571.433H-23.1532V569.251H380.097L382.404 555.995C377.655 554.115 373.04 551.914 368.59 549.409L358.314 561.677L357.478 560.975C352.776 557.042 347.743 553.522 342.434 550.455L341.486 549.91L349.543 535.942C345.779 532.65 342.235 529.115 338.934 525.36L325.002 533.458L324.454 532.516C321.373 527.217 317.838 522.196 313.889 517.508L313.187 516.672L325.429 506.357C322.915 501.919 320.704 497.316 318.81 492.579L303.574 495.283L303.384 494.207C302.313 488.176 300.718 482.251 298.615 476.499L298.239 475.476L312.467 470.265C311.327 463.818 310.744 457.284 310.724 450.737L296.43 448.265L296.614 447.189C297.658 441.14 298.176 435.012 298.161 428.873V427.779H313.018C314.067 422.623 315.473 417.546 317.227 412.585L303.687 404.792L304.229 403.846C307.284 398.535 309.87 392.967 311.957 387.206L312.327 386.177L327.246 391.569C329.864 387.274 332.763 383.158 335.925 379.247L325.518 366.919L326.351 366.216C331.037 362.261 335.371 357.906 339.304 353.2L340.007 352.362L352.388 362.712C356.28 359.531 360.378 356.608 364.654 353.965L359.185 339.07L360.211 338.694C365.961 336.581 371.515 333.97 376.81 330.889L377.753 330.341L385.62 343.857C390.553 342.078 395.605 340.644 400.737 339.565L400.69 324.679H401.78C407.914 324.661 414.036 324.113 420.075 323.043L421.148 322.85L423.695 337.155C430.097 337.019 436.707 337.68 443.258 338.794L448.389 324.549L449.418 324.919C455.179 326.994 461.112 328.559 467.147 329.597L468.223 329.78L465.605 345.013C470.357 346.888 474.978 349.081 479.436 351.576L489.686 339.289L490.525 339.989C495.232 343.917 500.272 347.427 505.589 350.479L506.538 351.022L498.508 365.007C502.278 368.29 505.828 371.817 509.137 375.565L523.069 367.437L523.62 368.383C526.711 373.675 530.255 378.689 534.214 383.367L534.917 384.203L522.704 394.533C525.226 398.965 527.445 403.562 529.347 408.293L544.586 405.56L544.782 406.636C545.861 412.663 547.468 418.583 549.584 424.329L549.96 425.355L535.732 430.598C536.88 437.023 537.475 443.535 537.51 450.061L551.807 452.56L551.62 453.636C550.541 459.813 550.012 466.075 550.04 472.346V473.434L535.166 473.523C534.149 478.474 532.803 483.352 531.134 488.124L696.865 489.203L696.85 491.385L528.028 490.288L528.562 488.83C530.537 483.425 532.088 477.875 533.201 472.23L533.372 471.341L547.858 471.249C547.89 465.578 548.368 459.919 549.287 454.324L535.32 451.884V450.698C535.322 443.777 534.684 436.871 533.414 430.068L533.245 429.178L547.153 424.053C545.299 418.851 543.85 413.514 542.819 408.088L527.966 410.756L527.637 409.923C525.592 404.717 523.156 399.674 520.351 394.835L519.894 394.044L531.846 383.933C528.319 379.678 525.124 375.158 522.289 370.413L508.678 378.354L508.085 377.67C504.483 373.525 500.582 369.65 496.412 366.077L495.724 365.484L503.568 351.822C498.802 349.023 494.259 345.861 489.98 342.363L479.955 354.38L479.16 353.927C474.295 351.15 469.226 348.744 463.999 346.73L463.163 346.409L465.715 331.562C460.278 330.57 454.927 329.159 449.708 327.341L444.693 341.272L443.786 341.109C437.292 339.939 430.708 339.344 424.11 339.331C423.881 339.331 423.656 339.331 423.431 339.349L421.884 339.375L419.391 325.379C413.936 326.289 408.419 326.785 402.889 326.861L402.934 341.355L402.044 341.533C396.415 342.667 390.883 344.237 385.498 346.229L384.639 346.546L376.932 333.328C372.132 336.057 367.128 338.41 361.966 340.368L367.301 354.893L366.53 355.358C361.809 358.225 357.306 361.437 353.058 364.968L352.359 365.561L340.288 355.438C336.697 359.643 332.791 363.568 328.604 367.179L338.777 379.229L338.184 379.931C334.676 384.201 331.489 388.725 328.651 393.466L328.189 394.237L313.623 388.972C311.689 394.148 309.359 399.168 306.654 403.986L319.895 411.607L319.581 412.469C317.617 417.874 316.078 423.424 314.977 429.069L314.805 429.958H300.316C300.277 435.493 299.812 441.017 298.926 446.48L312.914 448.899L312.885 450.544C312.896 457.329 313.522 464.1 314.755 470.772L314.921 471.661L301.007 476.756C302.852 481.962 304.291 487.303 305.311 492.73L320.162 490.098L320.488 490.931C322.524 496.146 324.95 501.199 327.747 506.049L328.203 506.84L316.231 516.918C319.75 521.182 322.937 525.708 325.764 530.459L339.399 522.544L339.992 523.229C343.587 527.387 347.485 531.274 351.653 534.857L352.338 535.45L344.465 549.086C349.226 551.895 353.763 555.066 358.038 558.571L368.087 546.572L368.878 547.028C373.738 549.814 378.801 552.229 384.025 554.252L384.861 554.575L381.932 571.433Z" fill="#6EA441"/>
<path d="M135.49 435.439C135.481 432.996 135.687 430.557 136.107 428.15L130.655 427.195C130.655 427.139 130.655 427.086 130.655 427.029C130.653 424.357 130.403 421.691 129.911 419.064L135.333 417.067C134.51 414.827 133.885 412.52 133.462 410.172L127.662 411.209C126.864 409.183 125.916 407.219 124.825 405.334L129.485 401.392C127.942 399.569 126.56 397.615 125.355 395.553L120.05 398.653C118.647 397.036 117.126 395.526 115.5 394.136L118.559 388.8C116.488 387.609 114.524 386.242 112.689 384.713L108.786 389.402C106.891 388.321 104.917 387.384 102.881 386.601L103.877 380.803C101.525 380.398 99.2129 379.788 96.9674 378.98L95.0111 384.41C92.4824 383.954 89.9182 383.723 87.3487 383.72C87.1797 383.72 87.0137 383.72 86.8418 383.72L85.8695 378.26C83.521 378.677 81.1408 378.89 78.7555 378.897L78.7733 384.561C76.5806 385.001 74.426 385.613 72.3291 386.39L69.3294 381.236C67.2598 382.442 65.0886 383.464 62.8408 384.292L64.9157 389.965C63.0765 391.08 61.3228 392.331 59.6691 393.706L54.9501 389.761C53.419 391.593 51.7331 393.289 49.911 394.832L53.8801 399.531C52.5122 401.192 51.2707 402.954 50.1659 404.801L44.4806 402.747C43.6778 404.99 42.68 407.16 41.4987 409.229L46.6623 412.194C45.8951 414.299 45.2954 416.462 44.8689 418.661H39.2073C39.2167 421.053 39.0183 423.442 38.6145 425.799L44.0686 426.742C44.0686 426.837 44.0686 426.928 44.0686 427.038C44.0717 429.68 44.3148 432.316 44.7948 434.914L39.3704 436.9C40.1911 439.141 40.813 441.45 41.2289 443.801L47.0298 442.772C47.822 444.802 48.7663 446.769 49.8547 448.656L45.1891 452.586C46.727 454.413 48.1036 456.37 49.3034 458.435L54.6181 455.349C56.0188 456.967 57.5366 458.48 59.1593 459.875L56.0884 465.211C58.1576 466.405 60.1193 467.777 61.9515 469.31L65.8702 464.633C67.7616 465.718 69.7325 466.658 71.7659 467.446L70.7581 473.244C73.1083 473.655 75.4182 474.27 77.6617 475.082L79.6299 469.654C82.1866 470.12 84.7797 470.356 87.3783 470.36C87.5206 470.36 87.6569 470.36 87.7963 470.36L88.7566 475.817C91.1106 475.404 93.4957 475.196 95.8855 475.194V469.533C98.0803 469.096 100.238 468.49 102.339 467.719L105.323 472.876C107.373 471.675 109.523 470.653 111.75 469.823L109.675 464.147C111.518 463.036 113.275 461.789 114.933 460.418L119.643 464.372C121.18 462.542 122.872 460.848 124.7 459.309L120.743 454.605C122.113 452.945 123.357 451.185 124.466 449.341L130.149 451.416C130.968 449.167 131.982 446.995 133.181 444.924L128.023 441.942C128.794 439.837 129.399 437.674 129.831 435.474L135.49 435.439ZM54.7219 427.029C54.7213 420.575 56.6346 414.266 60.2197 408.9C63.8049 403.534 68.901 399.351 74.8634 396.881C80.8258 394.411 87.3868 393.764 93.7166 395.023C100.046 396.282 105.861 399.39 110.424 403.954C114.988 408.517 118.096 414.331 119.355 420.661C120.613 426.991 119.967 433.552 117.497 439.515C115.027 445.477 110.844 450.573 105.478 454.158C100.112 457.743 93.8025 459.657 87.3487 459.656C78.696 459.656 70.3977 456.219 64.2791 450.101C58.1605 443.983 54.7227 435.685 54.7219 427.032V427.029Z" fill="#6EA441"/>
<path d="M211.643 554.495L210.25 546.566C206.898 546.543 203.554 546.255 200.248 545.703L197.391 553.6L196.362 553.227C193.228 552.091 190.001 551.232 186.717 550.66L185.641 550.473L187.123 542.019C184.754 541.06 182.446 539.959 180.211 538.72L174.513 545.52L173.678 544.82C171.118 542.678 168.378 540.762 165.487 539.093L164.542 538.548L169.009 530.802C167.14 529.146 165.371 527.381 163.709 525.517L155.958 529.996L155.412 529.054C153.734 526.169 151.809 523.434 149.659 520.881L148.956 520.048L155.741 514.331C154.499 512.101 153.393 509.797 152.43 507.433L143.973 508.951L143.784 507.875C143.201 504.593 142.332 501.368 141.187 498.238L140.814 497.212L148.701 494.322C148.142 491.023 147.845 487.685 147.812 484.339L139.889 482.966L140.073 481.893C140.641 478.599 140.922 475.262 140.914 471.919V470.828H149.17C149.713 468.243 150.418 465.695 151.28 463.198L143.763 458.874L144.305 457.928C145.968 455.037 147.376 452.006 148.512 448.869L148.882 447.841L157.164 450.835C158.485 448.697 159.933 446.64 161.501 444.675L155.738 437.84L156.574 437.137C159.124 434.983 161.482 432.613 163.623 430.053L164.326 429.214L171.191 434.953C173.145 433.375 175.192 431.915 177.321 430.58L174.294 422.316L175.32 421.94C178.448 420.789 181.47 419.368 184.352 417.692L185.294 417.144L189.654 424.637C192.138 423.761 194.675 423.041 197.249 422.482L197.225 414.218H198.304C201.642 414.208 204.973 413.91 208.261 413.329L209.337 413.139L210.754 421.062C214.103 421.077 217.447 421.358 220.752 421.904L223.597 414.005L224.626 414.375C227.763 415.504 230.992 416.356 234.277 416.921L235.353 417.105L233.898 425.562C236.271 426.515 238.583 427.612 240.822 428.846L246.505 422.029L247.343 422.728C249.906 424.868 252.65 426.779 255.545 428.44L256.491 428.983L252.045 436.737C253.916 438.389 255.689 440.15 257.354 442.01L265.078 437.505L265.63 438.447C267.311 441.329 269.24 444.058 271.395 446.605L272.1 447.438L265.327 453.17C266.573 455.396 267.683 457.696 268.65 460.056L277.11 458.542L277.302 459.615C277.891 462.896 278.766 466.119 279.917 469.248L280.293 470.271L272.409 473.185C272.975 476.473 273.279 479.802 273.319 483.138L281.251 484.523L281.064 485.599C280.474 488.961 280.185 492.37 280.201 495.784V496.871L271.94 496.922C271.392 499.508 270.681 502.058 269.812 504.555L277.311 508.891L276.763 509.837C275.097 512.725 273.684 515.753 272.542 518.886L272.169 519.912L263.893 516.9C262.567 519.036 261.115 521.09 259.544 523.051L265.295 529.895L264.459 530.598C261.904 532.748 259.54 535.114 257.392 537.67L256.692 538.506L249.842 532.756C247.883 534.328 245.831 535.782 243.698 537.11L246.715 545.383L245.689 545.757C242.559 546.9 239.533 548.314 236.649 549.984L235.706 550.532L231.361 543.039C228.873 543.909 226.334 544.621 223.757 545.173V553.437H222.667C219.327 553.439 215.994 553.731 212.704 554.308L211.643 554.495ZM212.076 544.358L213.418 551.976C216.122 551.553 218.852 551.314 221.588 551.261V543.385L222.477 543.211C225.537 542.595 228.544 541.745 231.473 540.667L232.333 540.35L236.503 547.55C238.891 546.224 241.367 545.064 243.914 544.079L241.03 536.168L241.797 535.702C244.374 534.149 246.831 532.406 249.149 530.488L249.851 529.895L256.426 535.412C258.222 533.349 260.159 531.412 262.221 529.614L256.698 523.069L257.291 522.366C259.207 520.045 260.947 517.585 262.499 515.006L262.962 514.236L270.879 517.117C271.863 514.57 273.02 512.094 274.344 509.706L267.141 505.557L267.458 504.694C268.534 501.75 269.379 498.726 269.984 495.65L270.159 494.761L278.029 494.714C278.065 491.9 278.302 489.093 278.737 486.313L271.125 484.982V484.051L272.225 483.826H271.131C271.126 480.09 270.778 476.362 270.091 472.69L269.922 471.783L277.495 468.993C276.598 466.412 275.881 463.771 275.349 461.091L267.275 462.54L266.946 461.707C265.833 458.872 264.507 456.125 262.98 453.491L262.52 452.699L269.041 447.195C267.309 445.076 265.724 442.841 264.299 440.504L256.888 444.823L256.295 444.142C254.332 441.879 252.206 439.762 249.934 437.81L249.249 437.217L253.515 429.783C251.168 428.378 248.921 426.813 246.789 425.1L241.332 431.642L240.538 431.188C237.888 429.675 235.128 428.365 232.279 427.269L231.444 426.946L232.834 418.875C230.15 418.366 227.505 417.673 224.916 416.8L222.183 424.379L221.276 424.219C217.74 423.583 214.154 423.259 210.561 423.253L208.928 423.283L207.57 415.665C204.868 416.092 202.139 416.336 199.404 416.394L199.43 424.273L198.541 424.448C195.476 425.066 192.463 425.921 189.53 427.006L188.67 427.323L184.482 420.129C182.095 421.458 179.619 422.622 177.072 423.612L179.976 431.52L179.209 431.985C176.64 433.545 174.191 435.294 171.881 437.217L171.182 437.81L164.592 432.306C162.798 434.37 160.865 436.311 158.809 438.115L164.346 444.675L163.753 445.378C161.851 447.696 160.123 450.152 158.584 452.726L158.124 453.497L150.201 450.633C149.224 453.187 148.072 455.67 146.751 458.064L153.96 462.214L153.646 463.074C152.576 466.02 151.739 469.046 151.141 472.123L150.966 473.013H143.084C143.042 475.751 142.812 478.484 142.397 481.191L150.009 482.507V483.654C150.002 487.406 150.341 491.151 151.022 494.841L151.188 495.745L143.615 498.52C144.506 501.102 145.217 503.744 145.743 506.425L153.817 504.993L154.144 505.826C155.252 508.665 156.574 511.416 158.098 514.055L158.554 514.846L152.033 520.336C153.754 522.457 155.327 524.695 156.74 527.032L164.151 522.725L164.743 523.41C166.703 525.674 168.826 527.791 171.096 529.744L171.78 530.337L167.497 537.748C169.842 539.158 172.087 540.728 174.217 542.446L179.689 535.925L180.48 536.381C183.127 537.896 185.884 539.211 188.727 540.315L189.563 540.638L188.158 548.709C190.841 549.228 193.485 549.932 196.072 550.814L198.817 543.237L199.724 543.4C203.3 544.051 206.926 544.381 210.561 544.387L212.076 544.358ZM210.567 531.36C184.352 531.36 163.021 510.018 163.021 483.814C163.021 457.611 184.363 436.269 210.567 436.269C236.77 436.269 258.112 457.611 258.112 483.814C258.112 510.018 236.776 531.36 210.561 531.36H210.567ZM210.567 438.453C185.555 438.453 165.215 458.802 165.215 483.805C165.215 508.808 185.564 529.157 210.567 529.157C235.57 529.157 255.919 508.808 255.919 483.805C255.919 458.802 235.573 438.453 210.561 438.453H210.567Z" fill="#6EA441"/>
<path d="M518.768 525.348C518.755 522.011 519.035 518.68 519.607 515.392L512.161 514.087C512.161 514.01 512.161 513.936 512.161 513.859C512.156 510.209 511.816 506.566 511.144 502.978L518.554 500.245C517.429 497.185 516.573 494.033 515.996 490.825L508.07 492.244C506.982 489.474 505.686 486.789 504.193 484.214L510.56 478.829C508.456 476.336 506.571 473.666 504.928 470.849L497.687 475.082C495.766 472.874 493.685 470.81 491.462 468.907L495.641 461.624C492.807 460 490.119 458.131 487.608 456.04L482.273 462.44C479.684 460.962 476.987 459.683 474.204 458.613L475.568 450.69C472.354 450.137 469.195 449.302 466.127 448.197L463.459 455.607C460.004 454.984 456.5 454.669 452.99 454.664C452.758 454.664 452.527 454.665 452.296 454.682L450.968 447.221C447.754 447.793 444.496 448.084 441.231 448.093L441.254 455.832C438.258 456.435 435.314 457.271 432.448 458.331L428.351 451.288C425.533 452.927 422.576 454.316 419.515 455.438L422.364 463.189C419.85 464.714 417.454 466.423 415.193 468.303L408.743 462.911C406.65 465.416 404.343 467.735 401.849 469.841L407.27 476.262C405.403 478.534 403.707 480.941 402.195 483.465L394.429 480.654C393.318 483.723 391.941 486.688 390.315 489.517L397.37 493.575C396.325 496.455 395.506 499.411 394.918 502.418H387.182C387.188 505.686 386.913 508.949 386.358 512.17L393.81 513.456C393.81 513.587 393.81 513.711 393.81 513.841C393.814 517.452 394.147 521.055 394.806 524.604L387.395 527.317C388.514 530.38 389.363 533.535 389.933 536.746L397.859 535.341C398.937 538.114 400.226 540.802 401.712 543.38L395.333 548.754C397.439 551.253 399.323 553.931 400.965 556.757L408.228 552.539C410.14 554.751 412.214 556.819 414.432 558.725L410.243 566.005C413.068 567.638 415.746 569.512 418.246 571.608L423.6 565.217C426.185 566.704 428.879 567.992 431.659 569.07L430.281 576.993C433.493 577.553 436.65 578.392 439.716 579.501L442.405 572.091C445.898 572.728 449.442 573.05 452.993 573.054C453.182 573.054 453.372 573.054 453.565 573.054L454.875 580.512C458.091 579.948 461.35 579.663 464.615 579.661V571.922C467.615 571.327 470.563 570.499 473.434 569.447L477.515 576.49C480.336 574.85 483.294 573.462 486.358 572.34L483.527 564.579C486.043 563.062 488.444 561.36 490.709 559.487L497.144 564.888C499.244 562.388 501.556 560.075 504.054 557.972L498.647 551.543C500.519 549.275 502.22 546.871 503.737 544.352L511.497 547.177C512.613 544.111 513.996 541.15 515.629 538.326L508.58 534.25C509.634 531.373 510.459 528.417 511.049 525.411L518.768 525.348ZM408.399 513.859C408.401 505.042 411.018 496.423 415.918 489.092C420.818 481.761 427.781 476.048 435.928 472.675C444.075 469.302 453.039 468.42 461.687 470.142C470.335 471.863 478.278 476.11 484.513 482.345C490.747 488.581 494.992 496.525 496.712 505.173C498.432 513.822 497.548 522.786 494.173 530.932C490.799 539.078 485.084 546.041 477.753 550.939C470.421 555.838 461.801 558.452 452.984 558.452C447.128 558.452 441.33 557.298 435.921 555.057C430.511 552.816 425.596 549.531 421.456 545.39C417.316 541.249 414.032 536.333 411.791 530.923C409.551 525.513 408.399 519.715 408.399 513.859Z" fill="#6EA441"/>
</g>
</g>
<defs>
<clipPath id="clip0_766_271">
<rect width="625" height="627" fill="white"/>
</clipPath>
</defs>
</svg>
