<svg width="19" height="19" viewBox="0 0 19 19" fill="none" xmlns="http://www.w3.org/2000/svg">
<path d="M17.4167 8.15558V5.4285C17.4167 4.94227 17.2235 4.47595 16.8797 4.13214C16.5359 3.78832 16.0696 3.59517 15.5833 3.59517H10.0833V2.3925C10.3629 2.14133 10.5417 1.78017 10.5417 1.375C10.5417 1.01033 10.3968 0.660591 10.1389 0.402728C9.88108 0.144866 9.53134 0 9.16667 0C8.80199 0 8.45226 0.144866 8.1944 0.402728C7.93653 0.660591 7.79167 1.01033 7.79167 1.375C7.79167 1.78017 7.97042 2.14133 8.25 2.3925V3.59517H2.75C2.26377 3.59517 1.79745 3.78832 1.45364 4.13214C1.10982 4.47595 0.916667 4.94227 0.916667 5.4285V8.17667L0.850667 8.18125C0.619564 8.19772 0.403292 8.30117 0.245437 8.47076C0.087582 8.64035 -0.000121911 8.86348 1.2719e-07 9.09517V10.9285C1.2719e-07 11.1716 0.0965772 11.4048 0.268486 11.5767C0.440394 11.7486 0.673552 11.8452 0.916667 11.8452V16.4285C0.916667 16.9147 1.10982 17.381 1.45364 17.7249C1.79745 18.0687 2.26377 18.2618 2.75 18.2618H15.5833C16.0696 18.2618 16.5359 18.0687 16.8797 17.7249C17.2235 17.381 17.4167 16.9147 17.4167 16.4285V11.8452C17.6598 11.8452 17.8929 11.7486 18.0648 11.5767C18.2368 11.4048 18.3333 11.1716 18.3333 10.9285V9.152C18.344 9.00974 18.3214 8.86695 18.2673 8.73492C18.0822 8.28758 17.6853 8.18033 17.4167 8.15558ZM4.58333 9.09517C4.58333 8.08317 5.19933 7.26183 5.95833 7.26183C6.71733 7.26183 7.33333 8.08317 7.33333 9.09517C7.33333 10.1072 6.71733 10.9285 5.95833 10.9285C5.19933 10.9285 4.58333 10.1072 4.58333 9.09517ZM12.8315 14.5952C11.9139 14.5924 5.5 14.5952 5.5 14.5952V12.7618C5.5 12.7618 11.9176 12.76 12.8352 12.7618L12.8315 14.5952ZM12.375 10.9285C11.616 10.9285 11 10.1072 11 9.09517C11 8.08317 11.616 7.26183 12.375 7.26183C13.134 7.26183 13.75 8.08317 13.75 9.09517C13.75 10.1072 13.134 10.9285 12.375 10.9285Z" fill="#394A31"/>
</svg>
