<svg width="18" height="18" viewBox="0 0 18 18" fill="none" xmlns="http://www.w3.org/2000/svg">
<path d="M8.15625 4.21875C8.15625 3.75117 8.53242 3.375 9 3.375C9.46758 3.375 9.84375 3.75117 9.84375 4.21875V8.55L12.8426 10.5469C13.2293 10.807 13.3348 11.3309 13.0465 11.7176C12.818 12.1043 12.2941 12.2098 11.9074 11.9215L8.53242 9.67148C8.29688 9.54492 8.15625 9.28125 8.15625 8.96836V4.21875ZM9 0C13.9711 0 18 4.02891 18 9C18 13.9711 13.9711 18 9 18C4.02891 18 0 13.9711 0 9C0 4.02891 4.02891 0 9 0ZM1.6875 9C1.6875 13.0395 4.96055 16.3125 9 16.3125C13.0395 16.3125 16.3125 13.0395 16.3125 9C16.3125 4.96055 13.0395 1.6875 9 1.6875C4.96055 1.6875 1.6875 4.96055 1.6875 9Z" fill="white"/>
</svg>
