<svg id="Слой_1" data-name="Слой 1" xmlns="http://www.w3.org/2000/svg" viewBox="0 0 512 512"><defs><style>.cls-1{fill:#fff;}</style></defs><path class="cls-1" d="M271,512H241c-6.75-.81-13.53-1.49-20.26-2.44-50.48-7.13-95.11-27.3-133.31-61-45-39.74-73.14-89.19-83.49-148.48C2.26,290.43,1.29,280.69,0,271V241c.31-1.76.68-3.52.91-5.29,1.22-9.24,1.93-18.56,3.67-27.7Q19.12,131.53,74,76.13C112.22,37.51,158.18,13.2,211.88,3.94,221.53,2.28,231.29,1.3,241,0h30c6.75.81,13.53,1.49,20.26,2.44,50.48,7.13,95.11,27.3,133.31,61,45,39.74,73.14,89.19,83.49,148.48,1.68,9.62,2.65,19.36,3.94,29.05v30c-.31,1.76-.68,3.52-.91,5.29-1.22,9.24-1.93,18.57-3.67,27.7Q492.89,380.48,438,435.87c-38.26,38.62-84.22,62.93-137.92,72.19C290.47,509.72,280.71,510.7,271,512ZM456,257.88C455.89,147.94,365.58,57.79,255.75,58S56.12,148.11,56,257.87,146.09,458,256,458,456.1,367.74,456,257.88Z"/><path class="cls-1" d="M426,258.05C425.9,351.43,349.47,427.88,256.07,428S85.58,350.93,86,257.7C86.45,164.08,163,87.76,256.18,88,349.68,88.27,426.06,164.76,426,258.05ZM271,246.78v-6.32q0-47.71,0-95.43c0-9.77-6.14-16.45-14.9-16.51s-15,6.65-15.06,16.35q-.08,57.45,0,114.92c0,10.52,6.15,16.86,16.77,16.92q37.47.26,74.95,0c9.79-.05,16.34-6.42,16.27-15.19s-6.64-14.69-16.6-14.73c-18.48-.07-37,0-55.46,0Z"/></svg>