<svg width="36" height="30" viewBox="0 0 36 30" fill="none" xmlns="http://www.w3.org/2000/svg">
<path d="M33.6656 22.5581C33.6373 13.8485 26.7421 6.79755 18.239 6.79688C9.73599 6.79755 2.84073 13.8485 2.8125 22.5581H33.6656ZM8.379 13.5995C9.2574 12.5181 10.6722 11.2516 12.7789 10.5323C13.1229 10.4145 13.4951 10.605 13.6094 10.9576C13.7242 11.3102 13.5385 11.6917 13.1945 11.8088C11.4193 12.4158 10.2271 13.4568 9.46026 14.3733C8.69477 15.2885 8.36521 16.0778 8.3442 16.1303C8.20962 16.4755 7.82753 16.6445 7.49075 16.5065C7.15396 16.3686 6.98983 15.9769 7.12442 15.6317C7.14411 15.5853 7.49994 14.6835 8.379 13.5995Z" fill="black"/>
<path d="M0.847656 23.9036L4.56609 27.7151C5.03878 28.1962 5.66836 28.5811 6.34062 28.8691C7.01485 29.1531 7.72585 29.3368 8.3922 29.3395H28.0873C28.7537 29.3368 29.4647 29.1531 30.1389 28.8691C30.8111 28.5811 31.4407 28.1962 31.9134 27.7151L35.6319 23.9036H0.847656Z" fill="black"/>
<path d="M20.5369 2.75892C20.5363 1.45749 19.5088 0.404359 18.2392 0.403687C16.9695 0.404359 15.9421 1.45749 15.9414 2.75892C15.9421 3.82483 16.636 4.71309 17.5827 5.00447V6.79647C17.5827 7.1686 17.8761 7.46939 18.2392 7.46939C18.6022 7.46939 18.8957 7.1686 18.8957 6.79647V5.00447C19.8424 4.71309 20.5363 3.82483 20.5369 2.75892ZM18.2392 3.76831C17.6956 3.76696 17.2557 3.3161 17.2544 2.75892C17.2557 2.20174 17.6956 1.75088 18.2392 1.74954C18.7828 1.75088 19.2226 2.20174 19.2239 2.75892C19.2226 3.3161 18.7828 3.76696 18.2392 3.76831Z" fill="black"/>
</svg>
