<svg width="19" height="16" viewBox="0 0 19 16" fill="none" xmlns="http://www.w3.org/2000/svg">
<path d="M17.3464 12.0948C17.3314 7.49131 13.6869 3.76452 9.19259 3.76416C4.69827 3.76452 1.05374 7.49131 1.03882 12.0948H17.3464ZM3.98102 7.35971C4.4453 6.78813 5.19309 6.11875 6.3066 5.73853C6.48843 5.67628 6.68518 5.77694 6.74556 5.96332C6.80628 6.14969 6.70808 6.35136 6.52625 6.41325C5.58797 6.73407 4.95782 7.2843 4.55253 7.76874C4.14793 8.25246 3.97373 8.66967 3.96263 8.69741C3.89149 8.87987 3.68954 8.96915 3.51153 8.89623C3.33352 8.82332 3.24677 8.61632 3.31791 8.43385C3.32832 8.40931 3.51639 7.9327 3.98102 7.35971Z" fill="white"/>
<path d="M0 12.8062L1.9654 14.8207C2.21524 15.075 2.54801 15.2785 2.90334 15.4307C3.25971 15.5808 3.6355 15.6779 3.98771 15.6793H14.3977C14.7499 15.6779 15.1257 15.5808 15.482 15.4307C15.8374 15.2785 16.1701 15.075 16.42 14.8207L18.3854 12.8062H0Z" fill="white"/>
<path d="M10.407 1.63013C10.4067 0.942245 9.86362 0.38561 9.19252 0.385254C8.52143 0.38561 7.97837 0.942245 7.97803 1.63013C7.97837 2.19352 8.34515 2.66301 8.84552 2.81702V3.76419C8.84552 3.96088 9.00063 4.11987 9.19252 4.11987C9.38441 4.11987 9.53952 3.96088 9.53952 3.76419V2.81702C10.0399 2.66301 10.4067 2.19352 10.407 1.63013ZM9.19252 2.16364C8.90521 2.16293 8.67272 1.92463 8.67202 1.63013C8.67272 1.33562 8.90521 1.09732 9.19252 1.09661C9.47984 1.09732 9.71233 1.33562 9.71302 1.63013C9.71233 1.92463 9.47984 2.16293 9.19252 2.16364Z" fill="white"/>
</svg>
