<svg width="25" height="26" viewBox="0 0 25 26" fill="none" xmlns="http://www.w3.org/2000/svg">
<path d="M23.4374 12.1875C23.2746 12.1864 23.1162 12.1325 22.9843 12.0332L12.4999 4.24941L2.01555 12.0332C1.84735 12.1368 1.64791 12.171 1.45661 12.1292C1.26531 12.0873 1.09605 11.9724 0.982235 11.8071C0.868424 11.6418 0.818337 11.4381 0.841861 11.2363C0.865385 11.0345 0.96081 10.8491 1.1093 10.7169L12.0468 2.59191C12.1791 2.49393 12.3375 2.44128 12.4999 2.44128C12.6623 2.44128 12.8207 2.49393 12.953 2.59191L23.8905 10.7169C24.0239 10.8173 24.1234 10.959 24.1747 11.1217C24.2261 11.2845 24.2267 11.4599 24.1764 11.623C24.1262 11.7861 24.0276 11.9285 23.8949 12.0299C23.7622 12.1313 23.6021 12.1864 23.4374 12.1875Z" fill="white"/>
<path d="M3.90625 7.3125C3.69905 7.3125 3.50034 7.2269 3.35382 7.07452C3.20731 6.92215 3.125 6.71549 3.125 6.5V3.25C3.125 3.03451 3.20731 2.82785 3.35382 2.67548C3.50034 2.5231 3.69905 2.4375 3.90625 2.4375H7.03125C7.23845 2.4375 7.43716 2.5231 7.58368 2.67548C7.73019 2.82785 7.8125 3.03451 7.8125 3.25C7.8125 3.46549 7.73019 3.67215 7.58368 3.82452C7.43716 3.9769 7.23845 4.0625 7.03125 4.0625H4.6875V6.5C4.6875 6.71549 4.60519 6.92215 4.45868 7.07452C4.31216 7.2269 4.11345 7.3125 3.90625 7.3125Z" fill="white"/>
<path d="M19.5312 23.5625H15.625C15.4178 23.5625 15.2191 23.4769 15.0726 23.3245C14.9261 23.1722 14.8438 22.9655 14.8438 22.75V17.0625H10.1562V22.75C10.1562 22.9655 10.0739 23.1722 9.92743 23.3245C9.78091 23.4769 9.5822 23.5625 9.375 23.5625H5.46875C4.84715 23.5625 4.25101 23.3057 3.81147 22.8486C3.37193 22.3915 3.125 21.7715 3.125 21.125V13C3.125 12.7845 3.20731 12.5778 3.35382 12.4255C3.50034 12.2731 3.69905 12.1875 3.90625 12.1875C4.11345 12.1875 4.31216 12.2731 4.45868 12.4255C4.60519 12.5778 4.6875 12.7845 4.6875 13V21.125C4.6875 21.3405 4.76981 21.5472 4.91632 21.6995C5.06284 21.8519 5.26155 21.9375 5.46875 21.9375H8.59375V16.25C8.59375 16.0345 8.67606 15.8278 8.82257 15.6755C8.96909 15.5231 9.1678 15.4375 9.375 15.4375H15.625C15.8322 15.4375 16.0309 15.5231 16.1774 15.6755C16.3239 15.8278 16.4062 16.0345 16.4062 16.25V21.9375H19.5312C19.7385 21.9375 19.9372 21.8519 20.0837 21.6995C20.2302 21.5472 20.3125 21.3405 20.3125 21.125V13C20.3125 12.7845 20.3948 12.5778 20.5413 12.4255C20.6878 12.2731 20.8865 12.1875 21.0938 12.1875C21.301 12.1875 21.4997 12.2731 21.6462 12.4255C21.7927 12.5778 21.875 12.7845 21.875 13V21.125C21.875 21.7715 21.6281 22.3915 21.1885 22.8486C20.749 23.3057 20.1529 23.5625 19.5312 23.5625Z" fill="white"/>
</svg>
