<svg width="14" height="16" viewBox="0 0 14 16" fill="none" xmlns="http://www.w3.org/2000/svg">
<g clip-path="url(#clip0_664_84)">
<path d="M8.61604 9.61635C8.61604 9.61635 8.72764 9.50474 8.95086 9.28153C9.17407 9.05831 9.28568 8.63123 9.28568 8.00028C9.28568 7.36933 9.06247 6.83064 8.61604 6.38421C8.16961 5.93778 7.63092 5.71456 6.99997 5.71456C6.36901 5.71456 5.83032 5.93778 5.38389 6.38421C4.93747 6.83064 4.71425 7.36933 4.71425 8.00028C4.71425 8.63123 4.93747 9.16992 5.38389 9.61635C5.83032 10.0628 6.36901 10.286 6.99997 10.286C7.63092 10.286 8.16961 10.0628 8.61604 9.61635ZM9.49104 5.50921C9.49104 5.50921 9.66217 5.68034 10.0044 6.0226C10.3467 6.36486 10.5178 7.02409 10.5178 8.00028C10.5178 8.97647 10.1756 9.80683 9.49104 10.4914C8.80651 11.1759 7.97616 11.5181 6.99997 11.5181C6.02377 11.5181 5.19342 11.1759 4.50889 10.4914C3.82437 9.80683 3.48211 8.97647 3.48211 8.00028C3.48211 7.02409 3.82437 6.19373 4.50889 5.50921C5.19342 4.82468 6.02377 4.48242 6.99997 4.48242C7.97616 4.48242 8.80651 4.82468 9.49104 5.50921ZM11.241 3.75921C11.241 3.75921 11.2812 3.79939 11.3616 3.87974C11.4419 3.9601 11.4821 4.11337 11.4821 4.33956C11.4821 4.56575 11.4018 4.75921 11.241 4.91992C11.0803 5.08064 10.8869 5.16099 10.6607 5.16099C10.4345 5.16099 10.241 5.08064 10.0803 4.91992C9.91961 4.75921 9.83925 4.56575 9.83925 4.33956C9.83925 4.11337 9.91961 3.91992 10.0803 3.75921C10.241 3.59849 10.4345 3.51814 10.6607 3.51814C10.8869 3.51814 11.0803 3.59849 11.241 3.75921ZM7.683 2.37081C7.683 2.37081 7.57958 2.37156 7.37273 2.37305C7.16589 2.37453 7.04163 2.37528 6.99997 2.37528C6.9583 2.37528 6.73062 2.37379 6.31693 2.37081C5.90324 2.36784 5.58925 2.36784 5.37497 2.37081C5.16068 2.37379 4.87348 2.38272 4.51336 2.3976C4.15324 2.41248 3.84669 2.44224 3.59372 2.48689C3.34074 2.53153 3.12794 2.58659 2.95532 2.65206C2.6577 2.77111 2.3958 2.94373 2.16961 3.16992C1.94342 3.39611 1.7708 3.65802 1.65175 3.95564C1.58627 4.12825 1.53122 4.34105 1.48657 4.59403C1.44193 4.847 1.41217 5.15355 1.39729 5.51367C1.38241 5.87379 1.37348 6.16099 1.3705 6.37528C1.36752 6.58956 1.36752 6.90355 1.3705 7.31724C1.37348 7.73093 1.37497 7.95861 1.37497 8.00028C1.37497 8.04195 1.37348 8.26962 1.3705 8.68331C1.36752 9.097 1.36752 9.41099 1.3705 9.62528C1.37348 9.83956 1.38241 10.1268 1.39729 10.4869C1.41217 10.847 1.44193 11.1536 1.48657 11.4065C1.53122 11.6595 1.58627 11.8723 1.65175 12.0449C1.7708 12.3425 1.94342 12.6044 2.16961 12.8306C2.3958 13.0568 2.6577 13.2294 2.95532 13.3485C3.12794 13.414 3.34074 13.469 3.59372 13.5137C3.84669 13.5583 4.15324 13.5881 4.51336 13.603C4.87348 13.6178 5.16068 13.6268 5.37497 13.6297C5.58925 13.6327 5.90324 13.6327 6.31693 13.6297C6.73062 13.6268 6.9583 13.6253 6.99997 13.6253C7.04163 13.6253 7.26931 13.6268 7.683 13.6297C8.09669 13.6327 8.41068 13.6327 8.62497 13.6297C8.83925 13.6268 9.12645 13.6178 9.48657 13.603C9.84669 13.5881 10.1532 13.5583 10.4062 13.5137C10.6592 13.469 10.872 13.414 11.0446 13.3485C11.3422 13.2294 11.6041 13.0568 11.8303 12.8306C12.0565 12.6044 12.2291 12.3425 12.3482 12.0449C12.4137 11.8723 12.4687 11.6595 12.5134 11.4065C12.558 11.1536 12.5878 10.847 12.6026 10.4869C12.6175 10.1268 12.6265 9.83956 12.6294 9.62528C12.6324 9.41099 12.6324 9.097 12.6294 8.68331C12.6265 8.26962 12.625 8.04195 12.625 8.00028C12.625 7.95861 12.6265 7.73093 12.6294 7.31724C12.6324 6.90355 12.6324 6.58956 12.6294 6.37528C12.6265 6.16099 12.6175 5.87379 12.6026 5.51367C12.5878 5.15355 12.558 4.847 12.5134 4.59403C12.4687 4.34105 12.4137 4.12825 12.3482 3.95564C12.2291 3.65802 12.0565 3.39611 11.8303 3.16992C11.6041 2.94373 11.3422 2.77111 11.0446 2.65206C10.872 2.58659 10.6592 2.53153 10.4062 2.48689C10.1532 2.44224 9.84669 2.41248 9.48657 2.3976C9.12645 2.38272 8.83925 2.37379 8.62497 2.37081C8.41068 2.36784 8.09669 2.36784 7.683 2.37081ZM13.8125 5.16992C13.8422 5.69373 13.8571 6.63718 13.8571 8.00028C13.8571 9.36337 13.8422 10.3068 13.8125 10.8306C13.7529 12.0687 13.3839 13.0271 12.7053 13.7056C12.0268 14.3842 11.0684 14.7533 9.83032 14.8128C9.30651 14.8425 8.36306 14.8574 6.99997 14.8574C5.63687 14.8574 4.69342 14.8425 4.16961 14.8128C2.93151 14.7533 1.97318 14.3842 1.29461 13.7056C0.616037 13.0271 0.246989 12.0687 0.187465 10.8306C0.157703 10.3068 0.142822 9.36337 0.142822 8.00028C0.142822 6.63718 0.157703 5.69373 0.187465 5.16992C0.246989 3.93183 0.616037 2.97349 1.29461 2.29492C1.97318 1.61635 2.93151 1.2473 4.16961 1.18778C4.69342 1.15802 5.63687 1.14314 6.99997 1.14314C8.36306 1.14314 9.30651 1.15802 9.83032 1.18778C11.0684 1.2473 12.0268 1.61635 12.7053 2.29492C13.3839 2.97349 13.7529 3.93183 13.8125 5.16992Z" fill="white"/>
</g>
<defs>
<clipPath id="clip0_664_84">
<rect width="13.72" height="16" fill="white" transform="matrix(1 0 0 -1 0.139893 16)"/>
</clipPath>
</defs>
</svg>
