<svg id="OBJECTS" xmlns="http://www.w3.org/2000/svg" viewBox="0 0 100 100"><defs><style>.cls-1{fill:#fff;}</style></defs><path class="cls-1" d="M76.46,63.7,65.38,56.05v5.46H63.75A11.25,11.25,0,0,1,52.52,50.27,15.51,15.51,0,0,0,37,34.78H21.15V39H37A11.25,11.25,0,0,1,48.27,50.27,15.5,15.5,0,0,0,63.75,65.76h1.59v.51h0v5.07Z"/><path class="cls-1" d="M46.19,56.22A11.22,11.22,0,0,1,37,61H21.15v4.25H37a15.45,15.45,0,0,0,11.19-4.81A18,18,0,0,1,46.19,56.22Z"/><path class="cls-1" d="M54.34,43.61a11.22,11.22,0,0,1,9.41-5.12h1.63V44L76.46,36.3,65.38,28.66v5.07h0v.51H63.75a15.43,15.43,0,0,0-11.61,5.28A18.1,18.1,0,0,1,54.34,43.61Z"/></svg>