<svg width="70" height="57" viewBox="0 0 70 57" fill="none" xmlns="http://www.w3.org/2000/svg">
<g clip-path="url(#clip0_946_760)">
<path d="M22.0981 47.3146H67.7777V10.7624H67.1155C54.1229 10.7624 41.1303 10.7669 28.1377 10.7761C26.2116 10.7761 24.7798 10.0861 23.699 8.51256C22.3069 6.49046 20.8323 4.527 19.4044 2.52933C19.2264 2.27914 19.0475 2.15502 18.7233 2.15502C13.3539 2.16479 7.98452 2.16772 2.61513 2.16381C2.48686 2.16381 2.35859 2.18238 2.20745 2.19411V47.3029H4.09668C3.68702 48.0349 3.33005 48.6819 2.96016 49.3221C2.90141 49.3962 2.81604 49.4455 2.72152 49.4599C2.39188 49.5262 2.05133 49.5196 1.72465 49.4403C1.39796 49.3611 1.09335 49.2113 0.832973 49.0018C0.572596 48.7923 0.363001 48.5284 0.219434 48.2293C0.0758656 47.9301 0.00193471 47.6033 0.00301856 47.2726C-0.000295886 32.2549 -0.00195312 17.2372 -0.00195312 2.21952C-0.00195312 0.964624 0.892946 0.0693876 2.1647 0.00977029C2.29694 0.00390629 2.43018 0.00977029 2.56243 0.00977029C24.1885 0.00977029 45.8142 0.00781558 67.4396 0.00390625C68.3017 0.00390625 69.0912 0.164189 69.5645 0.908916C69.8245 1.32062 69.9686 1.79279 69.9821 2.27718C70.0027 17.2629 70.008 32.2487 69.998 47.2345C69.998 48.5226 69.1161 49.4169 67.8105 49.4726C67.6614 49.4794 67.5122 49.4726 67.3631 49.4726C52.8796 49.4726 38.3955 49.4758 23.9107 49.4824C23.4573 49.4824 23.1819 49.3748 22.988 48.9507C22.7514 48.4171 22.4352 47.9206 22.0981 47.3146ZM33.0835 6.70939C33.9784 6.70939 34.8733 6.71525 35.7682 6.70939C36.4314 6.7045 36.8619 6.31845 36.8947 5.72619C36.9246 5.11242 36.5099 4.58955 35.8666 4.5788C34.0105 4.54948 32.1564 4.54948 30.3043 4.5788C29.6997 4.5876 29.2304 5.1349 29.2473 5.67732C29.2652 6.26372 29.7515 6.70352 30.4037 6.70939C31.2947 6.71525 32.1896 6.70939 33.0835 6.70939ZM51.9817 4.32274C51.584 4.32274 51.1863 4.30319 50.7885 4.32274C50.5162 4.34007 50.2606 4.45843 50.0736 4.65387C49.8866 4.84931 49.7821 5.10726 49.7812 5.37555C49.7804 5.64384 49.8832 5.90245 50.0689 6.09908C50.2546 6.29571 50.5093 6.41569 50.7816 6.43476C51.5578 6.46408 52.3351 6.46408 53.1133 6.43476C53.3896 6.42734 53.6516 6.31242 53.8418 6.11524C54.032 5.91806 54.1347 5.65475 54.1275 5.38314C54.1325 5.11336 54.0303 4.85231 53.8426 4.65541C53.6549 4.45851 53.3965 4.34127 53.1222 4.3286C52.7434 4.30319 52.3616 4.32372 51.9817 4.32274ZM57.4327 4.32274C57.0518 4.32274 56.671 4.30515 56.2922 4.32274C55.6638 4.35792 55.2392 4.81141 55.2461 5.39781C55.2419 5.66933 55.3471 5.9315 55.5388 6.12706C55.7305 6.32262 55.9931 6.43569 56.2693 6.4416C57.03 6.46896 57.7916 6.46798 58.5563 6.4416C58.6976 6.44119 58.8374 6.41275 58.9672 6.35798C59.0971 6.30322 59.2144 6.22324 59.312 6.12286C59.4097 6.02248 59.4858 5.90375 59.5356 5.77379C59.5855 5.64383 59.6082 5.50531 59.6023 5.36653C59.5963 4.78013 59.1628 4.34717 58.5294 4.31688C58.1665 4.30515 57.7966 4.31883 57.4327 4.31883V4.32274ZM62.8488 6.44942V6.45821H63.9426C63.9921 6.45784 64.0416 6.45458 64.0907 6.44844C64.3564 6.42623 64.6041 6.3071 64.785 6.11449C64.9659 5.92187 65.0669 5.6697 65.0681 5.40758C65.0761 4.83779 64.6704 4.35988 64.0738 4.3374C63.2783 4.30808 62.4829 4.30808 61.6934 4.3374C61.1236 4.36086 60.7239 4.82607 60.716 5.37142C60.7054 5.64293 60.8036 5.90768 60.9895 6.10873C61.1755 6.30978 61.4343 6.43106 61.7103 6.44648C62.0861 6.46799 62.468 6.44551 62.8488 6.44551V6.44942Z" fill="white"/>
<path d="M13.0853 56.9921C11.2796 56.9921 9.47291 57.0126 7.6682 56.9921C5.27385 56.953 3.57752 55.0443 3.87582 52.7202C3.94982 52.239 4.11294 51.7753 4.35707 51.3519C6.13759 48.1593 7.93402 44.9748 9.74636 41.7985C10.4752 40.5182 11.6018 39.8223 13.1042 39.8155C14.6265 39.8086 15.768 40.5065 16.5068 41.8053C18.3066 44.9693 20.0964 48.1384 21.8762 51.3128C23.3568 53.9575 21.5779 56.9501 18.4955 56.9872C16.6967 57.0107 14.891 56.9921 13.0853 56.9921ZM14.2169 48.4092V46.8963C14.2169 46.8796 14.2169 46.864 14.2169 46.8474C14.194 46.176 13.7376 45.701 13.1231 45.7029C12.5086 45.7049 12.0423 46.175 12.0353 46.8533C12.0247 47.8775 12.0247 48.9024 12.0353 49.9279C12.0433 50.5984 12.5126 51.0753 13.1291 51.0734C13.7456 51.0714 14.2039 50.5964 14.2228 49.9221C14.2268 49.4178 14.2169 48.9135 14.2169 48.4092ZM13.1321 53.7513C13.3446 53.7474 13.5513 53.6821 13.7263 53.5634C13.9013 53.4448 14.0369 53.2781 14.1161 53.0842C14.1953 52.8902 14.2146 52.6777 14.1716 52.473C14.1286 52.2684 14.0252 52.0807 13.8743 51.9335C13.7234 51.7863 13.5318 51.686 13.3232 51.6452C13.1147 51.6044 12.8986 51.6249 12.7019 51.7042C12.5052 51.7834 12.3366 51.9179 12.2171 52.0907C12.0977 52.2636 12.0327 52.4672 12.0303 52.6762C12.0303 52.8182 12.0589 52.9588 12.1145 53.0899C12.1701 53.221 12.2516 53.3399 12.3542 53.4399C12.4568 53.5398 12.5786 53.6188 12.7124 53.6723C12.8463 53.7257 12.9896 53.7526 13.134 53.7513H13.1321Z" fill="white"/>
<path d="M33.9145 31.5278C36.3467 31.5699 38.4586 32.3664 40.2375 33.9839C40.7714 34.4725 40.8241 35.1205 40.3876 35.575C39.9352 36.047 39.3207 36.0353 38.7619 35.5447C35.8644 33.0036 31.8712 33.0202 28.9975 35.5926C28.4119 36.1174 27.7785 36.1516 27.3271 35.6825C26.8756 35.2134 26.9363 34.5722 27.5001 34.0503C29.3058 32.3801 31.4575 31.5591 33.9145 31.5278Z" fill="white"/>
<path d="M22.6013 19.8908C22.114 19.4422 21.6954 19.0737 21.2987 18.6857C20.7757 18.1736 20.7508 17.5383 21.2142 17.0907C21.6775 16.6431 22.3079 16.6714 22.8379 17.1884C23.2356 17.5794 23.6035 17.9908 24.0659 18.4785C24.5183 17.9977 24.8882 17.5843 25.281 17.1943C25.806 16.6724 26.4364 16.6382 26.9047 17.0819C27.3731 17.5256 27.3432 18.1736 26.8003 18.716C26.4404 19.0757 26.0764 19.4304 25.7155 19.7911C25.6704 19.8575 25.6301 19.9271 25.5952 19.9993C25.977 20.3413 26.4016 20.698 26.7993 21.0812C27.3512 21.6128 27.382 22.254 26.9047 22.7133C26.4274 23.1727 25.811 23.1179 25.278 22.6038C24.9001 22.2393 24.5263 21.8708 24.1484 21.5063C24.1276 21.4858 24.0888 21.4848 23.9555 21.4408C23.6523 21.7614 23.3251 22.125 22.9791 22.4709C22.2423 23.2078 21.6169 23.3095 21.1028 22.7915C20.5887 22.2735 20.7051 21.6852 21.4617 20.9473C21.8028 20.6169 22.1588 20.3003 22.6013 19.8908Z" fill="white"/>
<path d="M45.9363 18.4843C46.3966 17.9956 46.7665 17.5832 47.1593 17.1933C47.6843 16.6723 48.3187 16.6411 48.783 17.0877C49.2474 17.5343 49.2255 18.1725 48.7045 18.6837C48.3068 19.0746 47.8901 19.4421 47.3701 19.9229C47.8514 20.3491 48.2789 20.7048 48.6776 21.085C49.2285 21.6147 49.2563 22.2656 48.7771 22.7171C48.2978 23.1687 47.6833 23.1188 47.1513 22.5989C46.7655 22.2197 46.3937 21.8268 45.9691 21.3929C45.4669 21.8815 45.0086 22.3399 44.5343 22.7836C44.3904 22.9318 44.2054 23.0352 44.0023 23.0809C43.7992 23.1266 43.5869 23.1126 43.3918 23.0406C42.9851 22.9067 42.7037 22.6155 42.7136 22.2304C42.7274 21.8686 42.8537 21.5197 43.0756 21.2306C43.4554 20.7674 43.9396 20.3852 44.5164 19.8408C44.0918 19.4841 43.701 19.188 43.348 18.8528C42.657 18.1989 42.5784 17.5822 43.0945 17.0867C43.6105 16.5912 44.2141 16.6831 44.8942 17.3653C45.2263 17.6995 45.5385 18.0553 45.9363 18.4843Z" fill="white"/>
<path d="M57.9678 34.9485C59.7225 34.9485 61.4768 34.9485 63.2308 34.9485C64.0342 34.9485 64.5384 35.3726 64.5314 36.0323C64.5245 36.692 64.0333 37.0986 63.2577 37.0986C59.7172 37.0986 56.1757 37.0986 52.6332 37.0986C51.6986 37.0986 51.1477 36.3383 51.5156 35.5681C51.7304 35.1205 52.1122 34.9495 52.6094 34.9504C54.3919 34.953 56.178 34.9524 57.9678 34.9485Z" fill="white"/>
<path d="M57.9747 42.4739C56.17 42.4739 54.3663 42.4817 52.5626 42.4739C51.6766 42.468 51.1486 41.6705 51.5225 40.9258C51.7214 40.5241 52.0743 40.3306 52.5268 40.3306C56.1514 40.3306 59.7758 40.3306 63.3998 40.3306C64.0531 40.3306 64.5194 40.787 64.5303 41.3832C64.5403 41.9989 64.064 42.469 63.3859 42.4729C61.5821 42.4807 59.7784 42.4739 57.9747 42.4739Z" fill="white"/>
<path d="M12.5932 34.9485C14.3472 34.9485 16.1012 34.9485 17.8552 34.9485C18.6327 34.9485 19.1249 35.357 19.1369 36.0011C19.1488 36.6676 18.6487 37.0957 17.8442 37.0957C14.3362 37.0957 10.8282 37.0957 7.32023 37.0957C6.51482 37.0957 6.01169 36.6774 6.01368 36.0206C6.01567 35.3639 6.51383 34.9485 7.33117 34.9485C9.08517 34.9485 10.8392 34.9485 12.5932 34.9485Z" fill="white"/>
<path d="M9.84189 31.7231C8.96589 31.7231 8.08889 31.728 7.21288 31.7231C6.49795 31.7182 6.00974 31.2677 6.01968 30.6373C6.02962 30.0069 6.49696 29.5798 7.18902 29.573C8.9576 29.573 10.7268 29.573 12.4968 29.573C13.1838 29.573 13.6611 30.0196 13.6681 30.6334C13.6741 31.2657 13.1888 31.7134 12.4749 31.7182C11.5949 31.729 10.7189 31.7231 9.84189 31.7231Z" fill="white"/>
</g>
<defs>
<clipPath id="clip0_946_760">
<rect width="70" height="57" fill="white"/>
</clipPath>
</defs>
</svg>
