<svg width="69" height="98" viewBox="0 0 69 98" fill="none" xmlns="http://www.w3.org/2000/svg">
<path d="M50.1551 22.7147V38.5751H18.7047V22.7147C18.7047 14.0315 25.7464 6.98913 34.4309 6.98913C43.1148 6.98844 50.1551 14.0294 50.1551 22.7147ZM28.1236 58.1969C28.1236 54.7127 30.9481 51.8896 34.4309 51.8896C37.9151 51.8896 40.7383 54.7127 40.7383 58.1969C40.7383 60.886 39.0532 63.174 36.6837 64.0839V84.3274H32.1775V64.0839C29.8086 63.1746 28.1236 60.8846 28.1236 58.1969ZM68.6278 94.5317L68.6285 41.6852C68.6285 41.6824 68.6285 41.6797 68.6285 41.6769C68.6285 39.9635 67.24 38.5744 65.5259 38.5744C65.5232 38.5744 65.5204 38.5751 65.5176 38.5751V38.5744H57.1463V22.7147C57.1463 10.1691 46.9758 0 34.4309 0C21.8853 0 11.7155 10.1691 11.7155 22.7147V38.5751H3.34352C3.34076 38.5751 3.3373 38.5751 3.33453 38.5751C1.62113 38.5758 0.233398 39.9642 0.233398 41.6776C0.233398 41.6804 0.23409 41.6831 0.23409 41.6859L0.233398 94.5324C0.233398 94.5372 0.233398 94.54 0.233398 94.5428C0.233398 96.2541 1.62182 97.6446 3.33522 97.6446C3.33799 97.6446 3.34145 97.6439 3.34421 97.6439V97.6446H65.5197V97.6439C65.5225 97.6439 65.5252 97.6446 65.528 97.6446C67.2407 97.6446 68.6312 96.2562 68.6312 94.5428C68.6285 94.5372 68.6278 94.5345 68.6278 94.5317Z" fill="#CACACA"/>
</svg>
