<svg width="24" height="25" viewBox="0 0 24 25" fill="none" xmlns="http://www.w3.org/2000/svg">
<path d="M3 12.4657H6.74999L8.24999 10.1284L11.25 14.803L12.75 12.4657H15" stroke="white" stroke-width="1.5" stroke-linecap="round" stroke-linejoin="round"/>
<path d="M2.63438 9.34924C2.625 9.22264 2.625 9.08629 2.625 8.95969C2.625 7.78898 3.01546 6.65442 3.72995 5.74906C4.44445 4.8437 5.43883 4.22345 6.54392 3.99386C7.64902 3.76426 8.79655 3.9395 9.79129 4.48975C10.786 5.04 11.5665 5.93127 12 7.01193C12.4334 5.93127 13.2139 5.04 14.2087 4.48975C15.2034 3.9395 16.3509 3.76426 17.456 3.99386C18.5611 4.22345 19.5555 4.8437 20.27 5.74906C20.9845 6.65442 21.375 7.78898 21.375 8.95969C21.375 15.5821 12 21.0358 12 21.0358C12 21.0358 8.25936 18.8543 5.50312 15.5821" stroke="white" stroke-width="1.5" stroke-linecap="round" stroke-linejoin="round"/>
</svg>
