<svg width="19" height="18" viewBox="0 0 19 18" fill="none" xmlns="http://www.w3.org/2000/svg">
<path d="M6.27737 5.80841C6.27737 5.80841 2.80548 6.1878 0.489419 6.44145C0.280666 6.46638 0.0960842 6.60405 0.0268661 6.81326C-0.042352 7.02246 0.0268659 7.24034 0.180684 7.378C1.90125 8.927 4.48649 11.2467 4.48649 11.2467C4.48429 11.2467 3.77673 14.6211 3.30649 16.8725C3.26693 17.0763 3.34164 17.292 3.52183 17.421C3.70092 17.55 3.93165 17.5522 4.11293 17.4513C6.13893 16.3153 9.17354 14.607 9.17354 14.607C9.17354 14.607 12.2093 16.3153 14.232 17.4524C14.4165 17.5521 14.6473 17.55 14.8264 17.421C15.0065 17.292 15.0813 17.0763 15.0406 16.8736C14.5704 14.6211 13.8639 11.2467 13.8639 11.2467C13.8639 11.2467 16.4491 8.927 18.1697 7.38126C18.3235 7.23926 18.3916 7.02138 18.3235 6.81326C18.2554 6.60513 18.0708 6.46747 17.8621 6.44362C15.546 6.18781 12.073 5.80841 12.073 5.80841C12.073 5.80841 10.6337 2.66707 9.67455 0.572838C9.58446 0.385311 9.39548 0.25415 9.17354 0.25415C8.95161 0.25415 8.76153 0.386395 8.67583 0.572838C7.71557 2.66707 6.27737 5.80841 6.27737 5.80841Z" fill="white"/>
</svg>
