<svg width="35" height="34" viewBox="0 0 35 34" fill="none" xmlns="http://www.w3.org/2000/svg">
<path d="M11.9351 10.8804C11.9351 10.8804 5.36642 11.5982 0.984549 12.0781C0.589599 12.1253 0.24038 12.3857 0.109423 12.7815C-0.0215341 13.1773 0.109423 13.5896 0.400439 13.85C3.65566 16.7806 8.5468 21.1694 8.5468 21.1694C8.54265 21.1694 7.20398 27.5536 6.3143 31.8131C6.23947 32.1987 6.38082 32.6068 6.72172 32.8508C7.06055 33.0949 7.49707 33.099 7.84005 32.9083C11.6731 30.759 17.4145 27.5269 17.4145 27.5269C17.4145 27.5269 23.1579 30.759 26.9847 32.9103C27.334 33.099 27.7705 33.0949 28.1093 32.8508C28.4502 32.6068 28.5916 32.1987 28.5147 31.8152C27.625 27.5536 26.2884 21.1694 26.2884 21.1694C26.2884 21.1694 31.1795 16.7806 34.4347 13.8562C34.7258 13.5875 34.8546 13.1753 34.7258 12.7815C34.5969 12.3878 34.2477 12.1273 33.8527 12.0822C29.4708 11.5982 22.9001 10.8804 22.9001 10.8804C22.9001 10.8804 20.177 4.93716 18.3624 0.97498C18.1919 0.620189 17.8344 0.37204 17.4145 0.37204C16.9946 0.37204 16.635 0.62224 16.4728 0.97498C14.6561 4.93716 11.9351 10.8804 11.9351 10.8804Z" fill="black"/>
</svg>
