<svg width="35" height="35" viewBox="0 0 35 35" fill="none" xmlns="http://www.w3.org/2000/svg">
<path d="M15.4312 8.87326C15.4312 7.98863 16.1429 7.27693 17.0275 7.27693C17.9122 7.27693 18.6239 7.98863 18.6239 8.87326V17.0678L24.2975 20.8458C25.0292 21.338 25.2287 22.329 24.6833 23.0607C24.2509 23.7923 23.2599 23.9919 22.5282 23.4464L16.1429 19.1896C15.6973 18.9501 15.4312 18.4513 15.4312 17.8593V8.87326ZM17.0275 0.891602C26.4326 0.891602 34.0551 8.51409 34.0551 17.9191C34.0551 27.3242 26.4326 34.9467 17.0275 34.9467C7.62249 34.9467 0 27.3242 0 17.9191C0 8.51409 7.62249 0.891602 17.0275 0.891602ZM3.19266 17.9191C3.19266 25.5616 9.3851 31.754 17.0275 31.754C24.67 31.754 30.8624 25.5616 30.8624 17.9191C30.8624 10.2767 24.67 4.08427 17.0275 4.08427C9.3851 4.08427 3.19266 10.2767 3.19266 17.9191Z" fill="black"/>
</svg>
