<svg width="12" height="12" viewBox="0 0 12 12" fill="none" xmlns="http://www.w3.org/2000/svg">
  <g clip-path="url(#clip0_1106_6458)">
    <path d="M4.5 6C6.15685 6 7.5 4.65685 7.5 3C7.5 1.34315 6.15685 0 4.5 0C2.84315 0 1.5 1.34315 1.5 3C1.5 4.65685 2.84315 6 4.5 6Z" fill="white"/>
    <path d="M6.5215 7.00049H2.4785C1.8214 7.00128 1.19145 7.26266 0.726813 7.7273C0.262176 8.19194 0.000793914 8.82189 0 9.47899L0 12.0005H9V9.47899C8.99921 8.82189 8.73782 8.19194 8.27319 7.7273C7.80855 7.26266 7.1786 7.00128 6.5215 7.00049Z" fill="white"/>
    <path d="M10.5 4.99951V3.49951H9.5V4.99951H8V5.99951H9.5V7.4995H10.5V5.99951H12V4.99951H10.5Z" fill="white"/>
  </g>
  <defs>
    <clipPath id="clip0_1106_6458">
      <rect width="12" height="12" fill="white"/>
    </clipPath>
  </defs>
</svg>
